<mxfile host="app.diagrams.net" modified="2024-05-29T16:35:18.174Z" agent="Mozilla/5.0 (Windows NT 10.0; Win64; x64) AppleWebKit/537.36 (KHTML, like Gecko) Chrome/125.0.0.0 Safari/537.36" etag="PNtqCm52ymlxpubkxZwK" version="24.4.9" type="github">
  <diagram name="Trang-1" id="rdlwIxtLvglHreywHkfj">
    <mxGraphModel dx="1400" dy="824" grid="1" gridSize="10" guides="1" tooltips="1" connect="1" arrows="1" fold="1" page="1" pageScale="1" pageWidth="3300" pageHeight="4681" math="0" shadow="0">
      <root>
        <mxCell id="0" />
        <mxCell id="1" parent="0" />
        <mxCell id="bNYrujHuYFInBL5xQJTk-1" value="Role (Quyền truy cập)" style="shape=table;startSize=30;container=1;collapsible=1;childLayout=tableLayout;fixedRows=1;rowLines=0;fontStyle=1;align=center;resizeLast=1;html=1;" parent="1" vertex="1">
          <mxGeometry x="1060" y="2230" width="180" height="150" as="geometry" />
        </mxCell>
        <mxCell id="bNYrujHuYFInBL5xQJTk-2" value="" style="shape=tableRow;horizontal=0;startSize=0;swimlaneHead=0;swimlaneBody=0;fillColor=none;collapsible=0;dropTarget=0;points=[[0,0.5],[1,0.5]];portConstraint=eastwest;top=0;left=0;right=0;bottom=1;" parent="bNYrujHuYFInBL5xQJTk-1" vertex="1">
          <mxGeometry y="30" width="180" height="30" as="geometry" />
        </mxCell>
        <mxCell id="bNYrujHuYFInBL5xQJTk-3" value="PK" style="shape=partialRectangle;connectable=0;fillColor=none;top=0;left=0;bottom=0;right=0;fontStyle=1;overflow=hidden;whiteSpace=wrap;html=1;" parent="bNYrujHuYFInBL5xQJTk-2" vertex="1">
          <mxGeometry width="30" height="30" as="geometry">
            <mxRectangle width="30" height="30" as="alternateBounds" />
          </mxGeometry>
        </mxCell>
        <mxCell id="bNYrujHuYFInBL5xQJTk-4" value="_id: ObjectId" style="shape=partialRectangle;connectable=0;fillColor=none;top=0;left=0;bottom=0;right=0;align=left;spacingLeft=6;fontStyle=5;overflow=hidden;whiteSpace=wrap;html=1;" parent="bNYrujHuYFInBL5xQJTk-2" vertex="1">
          <mxGeometry x="30" width="150" height="30" as="geometry">
            <mxRectangle width="150" height="30" as="alternateBounds" />
          </mxGeometry>
        </mxCell>
        <mxCell id="bNYrujHuYFInBL5xQJTk-5" value="" style="shape=tableRow;horizontal=0;startSize=0;swimlaneHead=0;swimlaneBody=0;fillColor=none;collapsible=0;dropTarget=0;points=[[0,0.5],[1,0.5]];portConstraint=eastwest;top=0;left=0;right=0;bottom=0;" parent="bNYrujHuYFInBL5xQJTk-1" vertex="1">
          <mxGeometry y="60" width="180" height="30" as="geometry" />
        </mxCell>
        <mxCell id="bNYrujHuYFInBL5xQJTk-6" value="" style="shape=partialRectangle;connectable=0;fillColor=none;top=0;left=0;bottom=0;right=0;editable=1;overflow=hidden;whiteSpace=wrap;html=1;" parent="bNYrujHuYFInBL5xQJTk-5" vertex="1">
          <mxGeometry width="30" height="30" as="geometry">
            <mxRectangle width="30" height="30" as="alternateBounds" />
          </mxGeometry>
        </mxCell>
        <mxCell id="bNYrujHuYFInBL5xQJTk-7" value="name_role: string" style="shape=partialRectangle;connectable=0;fillColor=none;top=0;left=0;bottom=0;right=0;align=left;spacingLeft=6;overflow=hidden;whiteSpace=wrap;html=1;" parent="bNYrujHuYFInBL5xQJTk-5" vertex="1">
          <mxGeometry x="30" width="150" height="30" as="geometry">
            <mxRectangle width="150" height="30" as="alternateBounds" />
          </mxGeometry>
        </mxCell>
        <mxCell id="bNYrujHuYFInBL5xQJTk-8" value="" style="shape=tableRow;horizontal=0;startSize=0;swimlaneHead=0;swimlaneBody=0;fillColor=none;collapsible=0;dropTarget=0;points=[[0,0.5],[1,0.5]];portConstraint=eastwest;top=0;left=0;right=0;bottom=0;" parent="bNYrujHuYFInBL5xQJTk-1" vertex="1">
          <mxGeometry y="90" width="180" height="30" as="geometry" />
        </mxCell>
        <mxCell id="bNYrujHuYFInBL5xQJTk-9" value="" style="shape=partialRectangle;connectable=0;fillColor=none;top=0;left=0;bottom=0;right=0;editable=1;overflow=hidden;whiteSpace=wrap;html=1;" parent="bNYrujHuYFInBL5xQJTk-8" vertex="1">
          <mxGeometry width="30" height="30" as="geometry">
            <mxRectangle width="30" height="30" as="alternateBounds" />
          </mxGeometry>
        </mxCell>
        <mxCell id="bNYrujHuYFInBL5xQJTk-10" value="createdAt: string" style="shape=partialRectangle;connectable=0;fillColor=none;top=0;left=0;bottom=0;right=0;align=left;spacingLeft=6;overflow=hidden;whiteSpace=wrap;html=1;" parent="bNYrujHuYFInBL5xQJTk-8" vertex="1">
          <mxGeometry x="30" width="150" height="30" as="geometry">
            <mxRectangle width="150" height="30" as="alternateBounds" />
          </mxGeometry>
        </mxCell>
        <mxCell id="bNYrujHuYFInBL5xQJTk-11" value="" style="shape=tableRow;horizontal=0;startSize=0;swimlaneHead=0;swimlaneBody=0;fillColor=none;collapsible=0;dropTarget=0;points=[[0,0.5],[1,0.5]];portConstraint=eastwest;top=0;left=0;right=0;bottom=0;" parent="bNYrujHuYFInBL5xQJTk-1" vertex="1">
          <mxGeometry y="120" width="180" height="30" as="geometry" />
        </mxCell>
        <mxCell id="bNYrujHuYFInBL5xQJTk-12" value="" style="shape=partialRectangle;connectable=0;fillColor=none;top=0;left=0;bottom=0;right=0;editable=1;overflow=hidden;whiteSpace=wrap;html=1;" parent="bNYrujHuYFInBL5xQJTk-11" vertex="1">
          <mxGeometry width="30" height="30" as="geometry">
            <mxRectangle width="30" height="30" as="alternateBounds" />
          </mxGeometry>
        </mxCell>
        <mxCell id="bNYrujHuYFInBL5xQJTk-13" value="updatedAt: string" style="shape=partialRectangle;connectable=0;fillColor=none;top=0;left=0;bottom=0;right=0;align=left;spacingLeft=6;overflow=hidden;whiteSpace=wrap;html=1;" parent="bNYrujHuYFInBL5xQJTk-11" vertex="1">
          <mxGeometry x="30" width="150" height="30" as="geometry">
            <mxRectangle width="150" height="30" as="alternateBounds" />
          </mxGeometry>
        </mxCell>
        <mxCell id="bNYrujHuYFInBL5xQJTk-14" value="User ( Người dùng )" style="shape=table;startSize=30;container=1;collapsible=1;childLayout=tableLayout;fixedRows=1;rowLines=0;fontStyle=1;align=center;resizeLast=1;html=1;" parent="1" vertex="1">
          <mxGeometry x="1300" y="2420" width="180" height="330" as="geometry" />
        </mxCell>
        <mxCell id="bNYrujHuYFInBL5xQJTk-15" value="" style="shape=tableRow;horizontal=0;startSize=0;swimlaneHead=0;swimlaneBody=0;fillColor=none;collapsible=0;dropTarget=0;points=[[0,0.5],[1,0.5]];portConstraint=eastwest;top=0;left=0;right=0;bottom=1;" parent="bNYrujHuYFInBL5xQJTk-14" vertex="1">
          <mxGeometry y="30" width="180" height="30" as="geometry" />
        </mxCell>
        <mxCell id="bNYrujHuYFInBL5xQJTk-16" value="PK" style="shape=partialRectangle;connectable=0;fillColor=none;top=0;left=0;bottom=0;right=0;fontStyle=1;overflow=hidden;whiteSpace=wrap;html=1;" parent="bNYrujHuYFInBL5xQJTk-15" vertex="1">
          <mxGeometry width="30" height="30" as="geometry">
            <mxRectangle width="30" height="30" as="alternateBounds" />
          </mxGeometry>
        </mxCell>
        <mxCell id="bNYrujHuYFInBL5xQJTk-17" value="_id: ObjectId" style="shape=partialRectangle;connectable=0;fillColor=none;top=0;left=0;bottom=0;right=0;align=left;spacingLeft=6;fontStyle=5;overflow=hidden;whiteSpace=wrap;html=1;" parent="bNYrujHuYFInBL5xQJTk-15" vertex="1">
          <mxGeometry x="30" width="150" height="30" as="geometry">
            <mxRectangle width="150" height="30" as="alternateBounds" />
          </mxGeometry>
        </mxCell>
        <mxCell id="bNYrujHuYFInBL5xQJTk-18" value="" style="shape=tableRow;horizontal=0;startSize=0;swimlaneHead=0;swimlaneBody=0;fillColor=none;collapsible=0;dropTarget=0;points=[[0,0.5],[1,0.5]];portConstraint=eastwest;top=0;left=0;right=0;bottom=0;" parent="bNYrujHuYFInBL5xQJTk-14" vertex="1">
          <mxGeometry y="60" width="180" height="30" as="geometry" />
        </mxCell>
        <mxCell id="bNYrujHuYFInBL5xQJTk-19" value="" style="shape=partialRectangle;connectable=0;fillColor=none;top=0;left=0;bottom=0;right=0;editable=1;overflow=hidden;whiteSpace=wrap;html=1;" parent="bNYrujHuYFInBL5xQJTk-18" vertex="1">
          <mxGeometry width="30" height="30" as="geometry">
            <mxRectangle width="30" height="30" as="alternateBounds" />
          </mxGeometry>
        </mxCell>
        <mxCell id="bNYrujHuYFInBL5xQJTk-20" value="username: string" style="shape=partialRectangle;connectable=0;fillColor=none;top=0;left=0;bottom=0;right=0;align=left;spacingLeft=6;overflow=hidden;whiteSpace=wrap;html=1;" parent="bNYrujHuYFInBL5xQJTk-18" vertex="1">
          <mxGeometry x="30" width="150" height="30" as="geometry">
            <mxRectangle width="150" height="30" as="alternateBounds" />
          </mxGeometry>
        </mxCell>
        <mxCell id="bNYrujHuYFInBL5xQJTk-21" value="" style="shape=tableRow;horizontal=0;startSize=0;swimlaneHead=0;swimlaneBody=0;fillColor=none;collapsible=0;dropTarget=0;points=[[0,0.5],[1,0.5]];portConstraint=eastwest;top=0;left=0;right=0;bottom=0;" parent="bNYrujHuYFInBL5xQJTk-14" vertex="1">
          <mxGeometry y="90" width="180" height="30" as="geometry" />
        </mxCell>
        <mxCell id="bNYrujHuYFInBL5xQJTk-22" value="" style="shape=partialRectangle;connectable=0;fillColor=none;top=0;left=0;bottom=0;right=0;editable=1;overflow=hidden;whiteSpace=wrap;html=1;" parent="bNYrujHuYFInBL5xQJTk-21" vertex="1">
          <mxGeometry width="30" height="30" as="geometry">
            <mxRectangle width="30" height="30" as="alternateBounds" />
          </mxGeometry>
        </mxCell>
        <mxCell id="bNYrujHuYFInBL5xQJTk-23" value="email: string" style="shape=partialRectangle;connectable=0;fillColor=none;top=0;left=0;bottom=0;right=0;align=left;spacingLeft=6;overflow=hidden;whiteSpace=wrap;html=1;" parent="bNYrujHuYFInBL5xQJTk-21" vertex="1">
          <mxGeometry x="30" width="150" height="30" as="geometry">
            <mxRectangle width="150" height="30" as="alternateBounds" />
          </mxGeometry>
        </mxCell>
        <mxCell id="bNYrujHuYFInBL5xQJTk-24" value="" style="shape=tableRow;horizontal=0;startSize=0;swimlaneHead=0;swimlaneBody=0;fillColor=none;collapsible=0;dropTarget=0;points=[[0,0.5],[1,0.5]];portConstraint=eastwest;top=0;left=0;right=0;bottom=0;" parent="bNYrujHuYFInBL5xQJTk-14" vertex="1">
          <mxGeometry y="120" width="180" height="30" as="geometry" />
        </mxCell>
        <mxCell id="bNYrujHuYFInBL5xQJTk-25" value="" style="shape=partialRectangle;connectable=0;fillColor=none;top=0;left=0;bottom=0;right=0;editable=1;overflow=hidden;whiteSpace=wrap;html=1;" parent="bNYrujHuYFInBL5xQJTk-24" vertex="1">
          <mxGeometry width="30" height="30" as="geometry">
            <mxRectangle width="30" height="30" as="alternateBounds" />
          </mxGeometry>
        </mxCell>
        <mxCell id="bNYrujHuYFInBL5xQJTk-26" value="password: string" style="shape=partialRectangle;connectable=0;fillColor=none;top=0;left=0;bottom=0;right=0;align=left;spacingLeft=6;overflow=hidden;whiteSpace=wrap;html=1;" parent="bNYrujHuYFInBL5xQJTk-24" vertex="1">
          <mxGeometry x="30" width="150" height="30" as="geometry">
            <mxRectangle width="150" height="30" as="alternateBounds" />
          </mxGeometry>
        </mxCell>
        <mxCell id="bNYrujHuYFInBL5xQJTk-44" value="" style="shape=tableRow;horizontal=0;startSize=0;swimlaneHead=0;swimlaneBody=0;fillColor=none;collapsible=0;dropTarget=0;points=[[0,0.5],[1,0.5]];portConstraint=eastwest;top=0;left=0;right=0;bottom=0;" parent="bNYrujHuYFInBL5xQJTk-14" vertex="1">
          <mxGeometry y="150" width="180" height="30" as="geometry" />
        </mxCell>
        <mxCell id="bNYrujHuYFInBL5xQJTk-45" value="" style="shape=partialRectangle;connectable=0;fillColor=none;top=0;left=0;bottom=0;right=0;editable=1;overflow=hidden;whiteSpace=wrap;html=1;" parent="bNYrujHuYFInBL5xQJTk-44" vertex="1">
          <mxGeometry width="30" height="30" as="geometry">
            <mxRectangle width="30" height="30" as="alternateBounds" />
          </mxGeometry>
        </mxCell>
        <mxCell id="bNYrujHuYFInBL5xQJTk-46" value="address: string" style="shape=partialRectangle;connectable=0;fillColor=none;top=0;left=0;bottom=0;right=0;align=left;spacingLeft=6;overflow=hidden;whiteSpace=wrap;html=1;" parent="bNYrujHuYFInBL5xQJTk-44" vertex="1">
          <mxGeometry x="30" width="150" height="30" as="geometry">
            <mxRectangle width="150" height="30" as="alternateBounds" />
          </mxGeometry>
        </mxCell>
        <mxCell id="bNYrujHuYFInBL5xQJTk-47" value="" style="shape=tableRow;horizontal=0;startSize=0;swimlaneHead=0;swimlaneBody=0;fillColor=none;collapsible=0;dropTarget=0;points=[[0,0.5],[1,0.5]];portConstraint=eastwest;top=0;left=0;right=0;bottom=0;" parent="bNYrujHuYFInBL5xQJTk-14" vertex="1">
          <mxGeometry y="180" width="180" height="30" as="geometry" />
        </mxCell>
        <mxCell id="bNYrujHuYFInBL5xQJTk-48" value="" style="shape=partialRectangle;connectable=0;fillColor=none;top=0;left=0;bottom=0;right=0;editable=1;overflow=hidden;whiteSpace=wrap;html=1;" parent="bNYrujHuYFInBL5xQJTk-47" vertex="1">
          <mxGeometry width="30" height="30" as="geometry">
            <mxRectangle width="30" height="30" as="alternateBounds" />
          </mxGeometry>
        </mxCell>
        <mxCell id="bNYrujHuYFInBL5xQJTk-49" value="phone: string" style="shape=partialRectangle;connectable=0;fillColor=none;top=0;left=0;bottom=0;right=0;align=left;spacingLeft=6;overflow=hidden;whiteSpace=wrap;html=1;" parent="bNYrujHuYFInBL5xQJTk-47" vertex="1">
          <mxGeometry x="30" width="150" height="30" as="geometry">
            <mxRectangle width="150" height="30" as="alternateBounds" />
          </mxGeometry>
        </mxCell>
        <mxCell id="bNYrujHuYFInBL5xQJTk-50" value="" style="shape=tableRow;horizontal=0;startSize=0;swimlaneHead=0;swimlaneBody=0;fillColor=none;collapsible=0;dropTarget=0;points=[[0,0.5],[1,0.5]];portConstraint=eastwest;top=0;left=0;right=0;bottom=0;" parent="bNYrujHuYFInBL5xQJTk-14" vertex="1">
          <mxGeometry y="210" width="180" height="30" as="geometry" />
        </mxCell>
        <mxCell id="bNYrujHuYFInBL5xQJTk-51" value="" style="shape=partialRectangle;connectable=0;fillColor=none;top=0;left=0;bottom=0;right=0;editable=1;overflow=hidden;whiteSpace=wrap;html=1;" parent="bNYrujHuYFInBL5xQJTk-50" vertex="1">
          <mxGeometry width="30" height="30" as="geometry">
            <mxRectangle width="30" height="30" as="alternateBounds" />
          </mxGeometry>
        </mxCell>
        <mxCell id="bNYrujHuYFInBL5xQJTk-52" value="verify: string" style="shape=partialRectangle;connectable=0;fillColor=none;top=0;left=0;bottom=0;right=0;align=left;spacingLeft=6;overflow=hidden;whiteSpace=wrap;html=1;" parent="bNYrujHuYFInBL5xQJTk-50" vertex="1">
          <mxGeometry x="30" width="150" height="30" as="geometry">
            <mxRectangle width="150" height="30" as="alternateBounds" />
          </mxGeometry>
        </mxCell>
        <mxCell id="bNYrujHuYFInBL5xQJTk-53" value="" style="shape=tableRow;horizontal=0;startSize=0;swimlaneHead=0;swimlaneBody=0;fillColor=none;collapsible=0;dropTarget=0;points=[[0,0.5],[1,0.5]];portConstraint=eastwest;top=0;left=0;right=0;bottom=0;" parent="bNYrujHuYFInBL5xQJTk-14" vertex="1">
          <mxGeometry y="240" width="180" height="30" as="geometry" />
        </mxCell>
        <mxCell id="bNYrujHuYFInBL5xQJTk-54" value="" style="shape=partialRectangle;connectable=0;fillColor=none;top=0;left=0;bottom=0;right=0;editable=1;overflow=hidden;whiteSpace=wrap;html=1;" parent="bNYrujHuYFInBL5xQJTk-53" vertex="1">
          <mxGeometry width="30" height="30" as="geometry">
            <mxRectangle width="30" height="30" as="alternateBounds" />
          </mxGeometry>
        </mxCell>
        <mxCell id="bNYrujHuYFInBL5xQJTk-55" value="avatar: string" style="shape=partialRectangle;connectable=0;fillColor=none;top=0;left=0;bottom=0;right=0;align=left;spacingLeft=6;overflow=hidden;whiteSpace=wrap;html=1;" parent="bNYrujHuYFInBL5xQJTk-53" vertex="1">
          <mxGeometry x="30" width="150" height="30" as="geometry">
            <mxRectangle width="150" height="30" as="alternateBounds" />
          </mxGeometry>
        </mxCell>
        <mxCell id="bNYrujHuYFInBL5xQJTk-56" value="" style="shape=tableRow;horizontal=0;startSize=0;swimlaneHead=0;swimlaneBody=0;fillColor=none;collapsible=0;dropTarget=0;points=[[0,0.5],[1,0.5]];portConstraint=eastwest;top=0;left=0;right=0;bottom=0;" parent="bNYrujHuYFInBL5xQJTk-14" vertex="1">
          <mxGeometry y="270" width="180" height="30" as="geometry" />
        </mxCell>
        <mxCell id="bNYrujHuYFInBL5xQJTk-57" value="" style="shape=partialRectangle;connectable=0;fillColor=none;top=0;left=0;bottom=0;right=0;editable=1;overflow=hidden;whiteSpace=wrap;html=1;" parent="bNYrujHuYFInBL5xQJTk-56" vertex="1">
          <mxGeometry width="30" height="30" as="geometry">
            <mxRectangle width="30" height="30" as="alternateBounds" />
          </mxGeometry>
        </mxCell>
        <mxCell id="bNYrujHuYFInBL5xQJTk-58" value="createdAt: string" style="shape=partialRectangle;connectable=0;fillColor=none;top=0;left=0;bottom=0;right=0;align=left;spacingLeft=6;overflow=hidden;whiteSpace=wrap;html=1;" parent="bNYrujHuYFInBL5xQJTk-56" vertex="1">
          <mxGeometry x="30" width="150" height="30" as="geometry">
            <mxRectangle width="150" height="30" as="alternateBounds" />
          </mxGeometry>
        </mxCell>
        <mxCell id="bNYrujHuYFInBL5xQJTk-59" value="" style="shape=tableRow;horizontal=0;startSize=0;swimlaneHead=0;swimlaneBody=0;fillColor=none;collapsible=0;dropTarget=0;points=[[0,0.5],[1,0.5]];portConstraint=eastwest;top=0;left=0;right=0;bottom=0;" parent="bNYrujHuYFInBL5xQJTk-14" vertex="1">
          <mxGeometry y="300" width="180" height="30" as="geometry" />
        </mxCell>
        <mxCell id="bNYrujHuYFInBL5xQJTk-60" value="" style="shape=partialRectangle;connectable=0;fillColor=none;top=0;left=0;bottom=0;right=0;editable=1;overflow=hidden;whiteSpace=wrap;html=1;" parent="bNYrujHuYFInBL5xQJTk-59" vertex="1">
          <mxGeometry width="30" height="30" as="geometry">
            <mxRectangle width="30" height="30" as="alternateBounds" />
          </mxGeometry>
        </mxCell>
        <mxCell id="bNYrujHuYFInBL5xQJTk-61" value="updatedAt: string" style="shape=partialRectangle;connectable=0;fillColor=none;top=0;left=0;bottom=0;right=0;align=left;spacingLeft=6;overflow=hidden;whiteSpace=wrap;html=1;" parent="bNYrujHuYFInBL5xQJTk-59" vertex="1">
          <mxGeometry x="30" width="150" height="30" as="geometry">
            <mxRectangle width="150" height="30" as="alternateBounds" />
          </mxGeometry>
        </mxCell>
        <mxCell id="bNYrujHuYFInBL5xQJTk-62" value="Product ( Sản phẩm )" style="shape=table;startSize=30;container=1;collapsible=1;childLayout=tableLayout;fixedRows=1;rowLines=0;fontStyle=1;align=center;resizeLast=1;html=1;" parent="1" vertex="1">
          <mxGeometry x="1660" y="2380" width="180" height="270" as="geometry" />
        </mxCell>
        <mxCell id="bNYrujHuYFInBL5xQJTk-63" value="" style="shape=tableRow;horizontal=0;startSize=0;swimlaneHead=0;swimlaneBody=0;fillColor=none;collapsible=0;dropTarget=0;points=[[0,0.5],[1,0.5]];portConstraint=eastwest;top=0;left=0;right=0;bottom=1;" parent="bNYrujHuYFInBL5xQJTk-62" vertex="1">
          <mxGeometry y="30" width="180" height="30" as="geometry" />
        </mxCell>
        <mxCell id="bNYrujHuYFInBL5xQJTk-64" value="PK" style="shape=partialRectangle;connectable=0;fillColor=none;top=0;left=0;bottom=0;right=0;fontStyle=1;overflow=hidden;whiteSpace=wrap;html=1;" parent="bNYrujHuYFInBL5xQJTk-63" vertex="1">
          <mxGeometry width="30" height="30" as="geometry">
            <mxRectangle width="30" height="30" as="alternateBounds" />
          </mxGeometry>
        </mxCell>
        <mxCell id="bNYrujHuYFInBL5xQJTk-65" value="_id: ObjectId" style="shape=partialRectangle;connectable=0;fillColor=none;top=0;left=0;bottom=0;right=0;align=left;spacingLeft=6;fontStyle=5;overflow=hidden;whiteSpace=wrap;html=1;" parent="bNYrujHuYFInBL5xQJTk-63" vertex="1">
          <mxGeometry x="30" width="150" height="30" as="geometry">
            <mxRectangle width="150" height="30" as="alternateBounds" />
          </mxGeometry>
        </mxCell>
        <mxCell id="bNYrujHuYFInBL5xQJTk-66" value="" style="shape=tableRow;horizontal=0;startSize=0;swimlaneHead=0;swimlaneBody=0;fillColor=none;collapsible=0;dropTarget=0;points=[[0,0.5],[1,0.5]];portConstraint=eastwest;top=0;left=0;right=0;bottom=0;" parent="bNYrujHuYFInBL5xQJTk-62" vertex="1">
          <mxGeometry y="60" width="180" height="30" as="geometry" />
        </mxCell>
        <mxCell id="bNYrujHuYFInBL5xQJTk-67" value="" style="shape=partialRectangle;connectable=0;fillColor=none;top=0;left=0;bottom=0;right=0;editable=1;overflow=hidden;whiteSpace=wrap;html=1;" parent="bNYrujHuYFInBL5xQJTk-66" vertex="1">
          <mxGeometry width="30" height="30" as="geometry">
            <mxRectangle width="30" height="30" as="alternateBounds" />
          </mxGeometry>
        </mxCell>
        <mxCell id="bNYrujHuYFInBL5xQJTk-68" value="name_product: string" style="shape=partialRectangle;connectable=0;fillColor=none;top=0;left=0;bottom=0;right=0;align=left;spacingLeft=6;overflow=hidden;whiteSpace=wrap;html=1;" parent="bNYrujHuYFInBL5xQJTk-66" vertex="1">
          <mxGeometry x="30" width="150" height="30" as="geometry">
            <mxRectangle width="150" height="30" as="alternateBounds" />
          </mxGeometry>
        </mxCell>
        <mxCell id="bNYrujHuYFInBL5xQJTk-69" value="" style="shape=tableRow;horizontal=0;startSize=0;swimlaneHead=0;swimlaneBody=0;fillColor=none;collapsible=0;dropTarget=0;points=[[0,0.5],[1,0.5]];portConstraint=eastwest;top=0;left=0;right=0;bottom=0;" parent="bNYrujHuYFInBL5xQJTk-62" vertex="1">
          <mxGeometry y="90" width="180" height="30" as="geometry" />
        </mxCell>
        <mxCell id="bNYrujHuYFInBL5xQJTk-70" value="" style="shape=partialRectangle;connectable=0;fillColor=none;top=0;left=0;bottom=0;right=0;editable=1;overflow=hidden;whiteSpace=wrap;html=1;" parent="bNYrujHuYFInBL5xQJTk-69" vertex="1">
          <mxGeometry width="30" height="30" as="geometry">
            <mxRectangle width="30" height="30" as="alternateBounds" />
          </mxGeometry>
        </mxCell>
        <mxCell id="bNYrujHuYFInBL5xQJTk-71" value="images: object[]" style="shape=partialRectangle;connectable=0;fillColor=none;top=0;left=0;bottom=0;right=0;align=left;spacingLeft=6;overflow=hidden;whiteSpace=wrap;html=1;" parent="bNYrujHuYFInBL5xQJTk-69" vertex="1">
          <mxGeometry x="30" width="150" height="30" as="geometry">
            <mxRectangle width="150" height="30" as="alternateBounds" />
          </mxGeometry>
        </mxCell>
        <mxCell id="bNYrujHuYFInBL5xQJTk-72" value="" style="shape=tableRow;horizontal=0;startSize=0;swimlaneHead=0;swimlaneBody=0;fillColor=none;collapsible=0;dropTarget=0;points=[[0,0.5],[1,0.5]];portConstraint=eastwest;top=0;left=0;right=0;bottom=0;" parent="bNYrujHuYFInBL5xQJTk-62" vertex="1">
          <mxGeometry y="120" width="180" height="30" as="geometry" />
        </mxCell>
        <mxCell id="bNYrujHuYFInBL5xQJTk-73" value="" style="shape=partialRectangle;connectable=0;fillColor=none;top=0;left=0;bottom=0;right=0;editable=1;overflow=hidden;whiteSpace=wrap;html=1;" parent="bNYrujHuYFInBL5xQJTk-72" vertex="1">
          <mxGeometry width="30" height="30" as="geometry">
            <mxRectangle width="30" height="30" as="alternateBounds" />
          </mxGeometry>
        </mxCell>
        <mxCell id="bNYrujHuYFInBL5xQJTk-74" value="price_product: number" style="shape=partialRectangle;connectable=0;fillColor=none;top=0;left=0;bottom=0;right=0;align=left;spacingLeft=6;overflow=hidden;whiteSpace=wrap;html=1;" parent="bNYrujHuYFInBL5xQJTk-72" vertex="1">
          <mxGeometry x="30" width="150" height="30" as="geometry">
            <mxRectangle width="150" height="30" as="alternateBounds" />
          </mxGeometry>
        </mxCell>
        <mxCell id="bNYrujHuYFInBL5xQJTk-75" value="" style="shape=tableRow;horizontal=0;startSize=0;swimlaneHead=0;swimlaneBody=0;fillColor=none;collapsible=0;dropTarget=0;points=[[0,0.5],[1,0.5]];portConstraint=eastwest;top=0;left=0;right=0;bottom=0;" parent="bNYrujHuYFInBL5xQJTk-62" vertex="1">
          <mxGeometry y="150" width="180" height="30" as="geometry" />
        </mxCell>
        <mxCell id="bNYrujHuYFInBL5xQJTk-76" value="" style="shape=partialRectangle;connectable=0;fillColor=none;top=0;left=0;bottom=0;right=0;editable=1;overflow=hidden;whiteSpace=wrap;html=1;" parent="bNYrujHuYFInBL5xQJTk-75" vertex="1">
          <mxGeometry width="30" height="30" as="geometry">
            <mxRectangle width="30" height="30" as="alternateBounds" />
          </mxGeometry>
        </mxCell>
        <mxCell id="bNYrujHuYFInBL5xQJTk-77" value="sizes: ObjectId[]" style="shape=partialRectangle;connectable=0;fillColor=none;top=0;left=0;bottom=0;right=0;align=left;spacingLeft=6;overflow=hidden;whiteSpace=wrap;html=1;" parent="bNYrujHuYFInBL5xQJTk-75" vertex="1">
          <mxGeometry x="30" width="150" height="30" as="geometry">
            <mxRectangle width="150" height="30" as="alternateBounds" />
          </mxGeometry>
        </mxCell>
        <mxCell id="bNYrujHuYFInBL5xQJTk-78" value="" style="shape=tableRow;horizontal=0;startSize=0;swimlaneHead=0;swimlaneBody=0;fillColor=none;collapsible=0;dropTarget=0;points=[[0,0.5],[1,0.5]];portConstraint=eastwest;top=0;left=0;right=0;bottom=0;" parent="bNYrujHuYFInBL5xQJTk-62" vertex="1">
          <mxGeometry y="180" width="180" height="30" as="geometry" />
        </mxCell>
        <mxCell id="bNYrujHuYFInBL5xQJTk-79" value="" style="shape=partialRectangle;connectable=0;fillColor=none;top=0;left=0;bottom=0;right=0;editable=1;overflow=hidden;whiteSpace=wrap;html=1;" parent="bNYrujHuYFInBL5xQJTk-78" vertex="1">
          <mxGeometry width="30" height="30" as="geometry">
            <mxRectangle width="30" height="30" as="alternateBounds" />
          </mxGeometry>
        </mxCell>
        <mxCell id="bNYrujHuYFInBL5xQJTk-80" value="description: string" style="shape=partialRectangle;connectable=0;fillColor=none;top=0;left=0;bottom=0;right=0;align=left;spacingLeft=6;overflow=hidden;whiteSpace=wrap;html=1;" parent="bNYrujHuYFInBL5xQJTk-78" vertex="1">
          <mxGeometry x="30" width="150" height="30" as="geometry">
            <mxRectangle width="150" height="30" as="alternateBounds" />
          </mxGeometry>
        </mxCell>
        <mxCell id="bNYrujHuYFInBL5xQJTk-81" value="" style="shape=tableRow;horizontal=0;startSize=0;swimlaneHead=0;swimlaneBody=0;fillColor=none;collapsible=0;dropTarget=0;points=[[0,0.5],[1,0.5]];portConstraint=eastwest;top=0;left=0;right=0;bottom=0;" parent="bNYrujHuYFInBL5xQJTk-62" vertex="1">
          <mxGeometry y="210" width="180" height="30" as="geometry" />
        </mxCell>
        <mxCell id="bNYrujHuYFInBL5xQJTk-82" value="" style="shape=partialRectangle;connectable=0;fillColor=none;top=0;left=0;bottom=0;right=0;editable=1;overflow=hidden;whiteSpace=wrap;html=1;" parent="bNYrujHuYFInBL5xQJTk-81" vertex="1">
          <mxGeometry width="30" height="30" as="geometry">
            <mxRectangle width="30" height="30" as="alternateBounds" />
          </mxGeometry>
        </mxCell>
        <mxCell id="bNYrujHuYFInBL5xQJTk-83" value="createdAt: Date" style="shape=partialRectangle;connectable=0;fillColor=none;top=0;left=0;bottom=0;right=0;align=left;spacingLeft=6;overflow=hidden;whiteSpace=wrap;html=1;" parent="bNYrujHuYFInBL5xQJTk-81" vertex="1">
          <mxGeometry x="30" width="150" height="30" as="geometry">
            <mxRectangle width="150" height="30" as="alternateBounds" />
          </mxGeometry>
        </mxCell>
        <mxCell id="bNYrujHuYFInBL5xQJTk-84" value="" style="shape=tableRow;horizontal=0;startSize=0;swimlaneHead=0;swimlaneBody=0;fillColor=none;collapsible=0;dropTarget=0;points=[[0,0.5],[1,0.5]];portConstraint=eastwest;top=0;left=0;right=0;bottom=0;" parent="bNYrujHuYFInBL5xQJTk-62" vertex="1">
          <mxGeometry y="240" width="180" height="30" as="geometry" />
        </mxCell>
        <mxCell id="bNYrujHuYFInBL5xQJTk-85" value="" style="shape=partialRectangle;connectable=0;fillColor=none;top=0;left=0;bottom=0;right=0;editable=1;overflow=hidden;whiteSpace=wrap;html=1;" parent="bNYrujHuYFInBL5xQJTk-84" vertex="1">
          <mxGeometry width="30" height="30" as="geometry">
            <mxRectangle width="30" height="30" as="alternateBounds" />
          </mxGeometry>
        </mxCell>
        <mxCell id="bNYrujHuYFInBL5xQJTk-86" value="updatedAt: Date" style="shape=partialRectangle;connectable=0;fillColor=none;top=0;left=0;bottom=0;right=0;align=left;spacingLeft=6;overflow=hidden;whiteSpace=wrap;html=1;" parent="bNYrujHuYFInBL5xQJTk-84" vertex="1">
          <mxGeometry x="30" width="150" height="30" as="geometry">
            <mxRectangle width="150" height="30" as="alternateBounds" />
          </mxGeometry>
        </mxCell>
        <mxCell id="bNYrujHuYFInBL5xQJTk-87" value="Sizes ( Kích thước )" style="shape=table;startSize=30;container=1;collapsible=1;childLayout=tableLayout;fixedRows=1;rowLines=0;fontStyle=1;align=center;resizeLast=1;html=1;" parent="1" vertex="1">
          <mxGeometry x="2010" y="2240" width="180" height="180" as="geometry" />
        </mxCell>
        <mxCell id="bNYrujHuYFInBL5xQJTk-88" value="" style="shape=tableRow;horizontal=0;startSize=0;swimlaneHead=0;swimlaneBody=0;fillColor=none;collapsible=0;dropTarget=0;points=[[0,0.5],[1,0.5]];portConstraint=eastwest;top=0;left=0;right=0;bottom=1;" parent="bNYrujHuYFInBL5xQJTk-87" vertex="1">
          <mxGeometry y="30" width="180" height="30" as="geometry" />
        </mxCell>
        <mxCell id="bNYrujHuYFInBL5xQJTk-89" value="PK" style="shape=partialRectangle;connectable=0;fillColor=none;top=0;left=0;bottom=0;right=0;fontStyle=1;overflow=hidden;whiteSpace=wrap;html=1;" parent="bNYrujHuYFInBL5xQJTk-88" vertex="1">
          <mxGeometry width="30" height="30" as="geometry">
            <mxRectangle width="30" height="30" as="alternateBounds" />
          </mxGeometry>
        </mxCell>
        <mxCell id="bNYrujHuYFInBL5xQJTk-90" value="_id: ObjectId" style="shape=partialRectangle;connectable=0;fillColor=none;top=0;left=0;bottom=0;right=0;align=left;spacingLeft=6;fontStyle=5;overflow=hidden;whiteSpace=wrap;html=1;" parent="bNYrujHuYFInBL5xQJTk-88" vertex="1">
          <mxGeometry x="30" width="150" height="30" as="geometry">
            <mxRectangle width="150" height="30" as="alternateBounds" />
          </mxGeometry>
        </mxCell>
        <mxCell id="bNYrujHuYFInBL5xQJTk-91" value="" style="shape=tableRow;horizontal=0;startSize=0;swimlaneHead=0;swimlaneBody=0;fillColor=none;collapsible=0;dropTarget=0;points=[[0,0.5],[1,0.5]];portConstraint=eastwest;top=0;left=0;right=0;bottom=0;" parent="bNYrujHuYFInBL5xQJTk-87" vertex="1">
          <mxGeometry y="60" width="180" height="30" as="geometry" />
        </mxCell>
        <mxCell id="bNYrujHuYFInBL5xQJTk-92" value="" style="shape=partialRectangle;connectable=0;fillColor=none;top=0;left=0;bottom=0;right=0;editable=1;overflow=hidden;whiteSpace=wrap;html=1;" parent="bNYrujHuYFInBL5xQJTk-91" vertex="1">
          <mxGeometry width="30" height="30" as="geometry">
            <mxRectangle width="30" height="30" as="alternateBounds" />
          </mxGeometry>
        </mxCell>
        <mxCell id="bNYrujHuYFInBL5xQJTk-93" value="name_size: string" style="shape=partialRectangle;connectable=0;fillColor=none;top=0;left=0;bottom=0;right=0;align=left;spacingLeft=6;overflow=hidden;whiteSpace=wrap;html=1;" parent="bNYrujHuYFInBL5xQJTk-91" vertex="1">
          <mxGeometry x="30" width="150" height="30" as="geometry">
            <mxRectangle width="150" height="30" as="alternateBounds" />
          </mxGeometry>
        </mxCell>
        <mxCell id="bNYrujHuYFInBL5xQJTk-94" value="" style="shape=tableRow;horizontal=0;startSize=0;swimlaneHead=0;swimlaneBody=0;fillColor=none;collapsible=0;dropTarget=0;points=[[0,0.5],[1,0.5]];portConstraint=eastwest;top=0;left=0;right=0;bottom=0;" parent="bNYrujHuYFInBL5xQJTk-87" vertex="1">
          <mxGeometry y="90" width="180" height="30" as="geometry" />
        </mxCell>
        <mxCell id="bNYrujHuYFInBL5xQJTk-95" value="" style="shape=partialRectangle;connectable=0;fillColor=none;top=0;left=0;bottom=0;right=0;editable=1;overflow=hidden;whiteSpace=wrap;html=1;" parent="bNYrujHuYFInBL5xQJTk-94" vertex="1">
          <mxGeometry width="30" height="30" as="geometry">
            <mxRectangle width="30" height="30" as="alternateBounds" />
          </mxGeometry>
        </mxCell>
        <mxCell id="bNYrujHuYFInBL5xQJTk-96" value="quantity: number" style="shape=partialRectangle;connectable=0;fillColor=none;top=0;left=0;bottom=0;right=0;align=left;spacingLeft=6;overflow=hidden;whiteSpace=wrap;html=1;" parent="bNYrujHuYFInBL5xQJTk-94" vertex="1">
          <mxGeometry x="30" width="150" height="30" as="geometry">
            <mxRectangle width="150" height="30" as="alternateBounds" />
          </mxGeometry>
        </mxCell>
        <mxCell id="bNYrujHuYFInBL5xQJTk-97" value="" style="shape=tableRow;horizontal=0;startSize=0;swimlaneHead=0;swimlaneBody=0;fillColor=none;collapsible=0;dropTarget=0;points=[[0,0.5],[1,0.5]];portConstraint=eastwest;top=0;left=0;right=0;bottom=0;" parent="bNYrujHuYFInBL5xQJTk-87" vertex="1">
          <mxGeometry y="120" width="180" height="30" as="geometry" />
        </mxCell>
        <mxCell id="bNYrujHuYFInBL5xQJTk-98" value="" style="shape=partialRectangle;connectable=0;fillColor=none;top=0;left=0;bottom=0;right=0;editable=1;overflow=hidden;whiteSpace=wrap;html=1;" parent="bNYrujHuYFInBL5xQJTk-97" vertex="1">
          <mxGeometry width="30" height="30" as="geometry">
            <mxRectangle width="30" height="30" as="alternateBounds" />
          </mxGeometry>
        </mxCell>
        <mxCell id="bNYrujHuYFInBL5xQJTk-99" value="createdAt: Date" style="shape=partialRectangle;connectable=0;fillColor=none;top=0;left=0;bottom=0;right=0;align=left;spacingLeft=6;overflow=hidden;whiteSpace=wrap;html=1;" parent="bNYrujHuYFInBL5xQJTk-97" vertex="1">
          <mxGeometry x="30" width="150" height="30" as="geometry">
            <mxRectangle width="150" height="30" as="alternateBounds" />
          </mxGeometry>
        </mxCell>
        <mxCell id="bNYrujHuYFInBL5xQJTk-100" value="" style="shape=tableRow;horizontal=0;startSize=0;swimlaneHead=0;swimlaneBody=0;fillColor=none;collapsible=0;dropTarget=0;points=[[0,0.5],[1,0.5]];portConstraint=eastwest;top=0;left=0;right=0;bottom=0;" parent="bNYrujHuYFInBL5xQJTk-87" vertex="1">
          <mxGeometry y="150" width="180" height="30" as="geometry" />
        </mxCell>
        <mxCell id="bNYrujHuYFInBL5xQJTk-101" value="" style="shape=partialRectangle;connectable=0;fillColor=none;top=0;left=0;bottom=0;right=0;editable=1;overflow=hidden;whiteSpace=wrap;html=1;" parent="bNYrujHuYFInBL5xQJTk-100" vertex="1">
          <mxGeometry width="30" height="30" as="geometry">
            <mxRectangle width="30" height="30" as="alternateBounds" />
          </mxGeometry>
        </mxCell>
        <mxCell id="bNYrujHuYFInBL5xQJTk-102" value="updatedAt: Date" style="shape=partialRectangle;connectable=0;fillColor=none;top=0;left=0;bottom=0;right=0;align=left;spacingLeft=6;overflow=hidden;whiteSpace=wrap;html=1;" parent="bNYrujHuYFInBL5xQJTk-100" vertex="1">
          <mxGeometry x="30" width="150" height="30" as="geometry">
            <mxRectangle width="150" height="30" as="alternateBounds" />
          </mxGeometry>
        </mxCell>
        <mxCell id="bNYrujHuYFInBL5xQJTk-106" value="Product Sole ( Sản phẩm đã bán)" style="shape=table;startSize=30;container=1;collapsible=1;childLayout=tableLayout;fixedRows=1;rowLines=0;fontStyle=1;align=center;resizeLast=1;html=1;" parent="1" vertex="1">
          <mxGeometry x="1710" y="1970" width="220" height="210" as="geometry" />
        </mxCell>
        <mxCell id="bNYrujHuYFInBL5xQJTk-107" value="" style="shape=tableRow;horizontal=0;startSize=0;swimlaneHead=0;swimlaneBody=0;fillColor=none;collapsible=0;dropTarget=0;points=[[0,0.5],[1,0.5]];portConstraint=eastwest;top=0;left=0;right=0;bottom=1;" parent="bNYrujHuYFInBL5xQJTk-106" vertex="1">
          <mxGeometry y="30" width="220" height="30" as="geometry" />
        </mxCell>
        <mxCell id="bNYrujHuYFInBL5xQJTk-108" value="PK" style="shape=partialRectangle;connectable=0;fillColor=none;top=0;left=0;bottom=0;right=0;fontStyle=1;overflow=hidden;whiteSpace=wrap;html=1;" parent="bNYrujHuYFInBL5xQJTk-107" vertex="1">
          <mxGeometry width="30" height="30" as="geometry">
            <mxRectangle width="30" height="30" as="alternateBounds" />
          </mxGeometry>
        </mxCell>
        <mxCell id="bNYrujHuYFInBL5xQJTk-109" value="_id: ObjectId" style="shape=partialRectangle;connectable=0;fillColor=none;top=0;left=0;bottom=0;right=0;align=left;spacingLeft=6;fontStyle=5;overflow=hidden;whiteSpace=wrap;html=1;" parent="bNYrujHuYFInBL5xQJTk-107" vertex="1">
          <mxGeometry x="30" width="190" height="30" as="geometry">
            <mxRectangle width="190" height="30" as="alternateBounds" />
          </mxGeometry>
        </mxCell>
        <mxCell id="bNYrujHuYFInBL5xQJTk-110" value="" style="shape=tableRow;horizontal=0;startSize=0;swimlaneHead=0;swimlaneBody=0;fillColor=none;collapsible=0;dropTarget=0;points=[[0,0.5],[1,0.5]];portConstraint=eastwest;top=0;left=0;right=0;bottom=0;" parent="bNYrujHuYFInBL5xQJTk-106" vertex="1">
          <mxGeometry y="60" width="220" height="30" as="geometry" />
        </mxCell>
        <mxCell id="bNYrujHuYFInBL5xQJTk-111" value="" style="shape=partialRectangle;connectable=0;fillColor=none;top=0;left=0;bottom=0;right=0;editable=1;overflow=hidden;whiteSpace=wrap;html=1;" parent="bNYrujHuYFInBL5xQJTk-110" vertex="1">
          <mxGeometry width="30" height="30" as="geometry">
            <mxRectangle width="30" height="30" as="alternateBounds" />
          </mxGeometry>
        </mxCell>
        <mxCell id="bNYrujHuYFInBL5xQJTk-112" value="sizes: ObjectId[]" style="shape=partialRectangle;connectable=0;fillColor=none;top=0;left=0;bottom=0;right=0;align=left;spacingLeft=6;overflow=hidden;whiteSpace=wrap;html=1;" parent="bNYrujHuYFInBL5xQJTk-110" vertex="1">
          <mxGeometry x="30" width="190" height="30" as="geometry">
            <mxRectangle width="190" height="30" as="alternateBounds" />
          </mxGeometry>
        </mxCell>
        <mxCell id="bNYrujHuYFInBL5xQJTk-113" value="" style="shape=tableRow;horizontal=0;startSize=0;swimlaneHead=0;swimlaneBody=0;fillColor=none;collapsible=0;dropTarget=0;points=[[0,0.5],[1,0.5]];portConstraint=eastwest;top=0;left=0;right=0;bottom=0;" parent="bNYrujHuYFInBL5xQJTk-106" vertex="1">
          <mxGeometry y="90" width="220" height="30" as="geometry" />
        </mxCell>
        <mxCell id="bNYrujHuYFInBL5xQJTk-114" value="" style="shape=partialRectangle;connectable=0;fillColor=none;top=0;left=0;bottom=0;right=0;editable=1;overflow=hidden;whiteSpace=wrap;html=1;" parent="bNYrujHuYFInBL5xQJTk-113" vertex="1">
          <mxGeometry width="30" height="30" as="geometry">
            <mxRectangle width="30" height="30" as="alternateBounds" />
          </mxGeometry>
        </mxCell>
        <mxCell id="bNYrujHuYFInBL5xQJTk-115" value="products: ObjectId[]" style="shape=partialRectangle;connectable=0;fillColor=none;top=0;left=0;bottom=0;right=0;align=left;spacingLeft=6;overflow=hidden;whiteSpace=wrap;html=1;" parent="bNYrujHuYFInBL5xQJTk-113" vertex="1">
          <mxGeometry x="30" width="190" height="30" as="geometry">
            <mxRectangle width="190" height="30" as="alternateBounds" />
          </mxGeometry>
        </mxCell>
        <mxCell id="bNYrujHuYFInBL5xQJTk-116" value="" style="shape=tableRow;horizontal=0;startSize=0;swimlaneHead=0;swimlaneBody=0;fillColor=none;collapsible=0;dropTarget=0;points=[[0,0.5],[1,0.5]];portConstraint=eastwest;top=0;left=0;right=0;bottom=0;" parent="bNYrujHuYFInBL5xQJTk-106" vertex="1">
          <mxGeometry y="120" width="220" height="30" as="geometry" />
        </mxCell>
        <mxCell id="bNYrujHuYFInBL5xQJTk-117" value="" style="shape=partialRectangle;connectable=0;fillColor=none;top=0;left=0;bottom=0;right=0;editable=1;overflow=hidden;whiteSpace=wrap;html=1;" parent="bNYrujHuYFInBL5xQJTk-116" vertex="1">
          <mxGeometry width="30" height="30" as="geometry">
            <mxRectangle width="30" height="30" as="alternateBounds" />
          </mxGeometry>
        </mxCell>
        <mxCell id="bNYrujHuYFInBL5xQJTk-118" value="quantity: number" style="shape=partialRectangle;connectable=0;fillColor=none;top=0;left=0;bottom=0;right=0;align=left;spacingLeft=6;overflow=hidden;whiteSpace=wrap;html=1;" parent="bNYrujHuYFInBL5xQJTk-116" vertex="1">
          <mxGeometry x="30" width="190" height="30" as="geometry">
            <mxRectangle width="190" height="30" as="alternateBounds" />
          </mxGeometry>
        </mxCell>
        <mxCell id="bNYrujHuYFInBL5xQJTk-119" value="" style="shape=tableRow;horizontal=0;startSize=0;swimlaneHead=0;swimlaneBody=0;fillColor=none;collapsible=0;dropTarget=0;points=[[0,0.5],[1,0.5]];portConstraint=eastwest;top=0;left=0;right=0;bottom=0;" parent="bNYrujHuYFInBL5xQJTk-106" vertex="1">
          <mxGeometry y="150" width="220" height="30" as="geometry" />
        </mxCell>
        <mxCell id="bNYrujHuYFInBL5xQJTk-120" value="" style="shape=partialRectangle;connectable=0;fillColor=none;top=0;left=0;bottom=0;right=0;editable=1;overflow=hidden;whiteSpace=wrap;html=1;" parent="bNYrujHuYFInBL5xQJTk-119" vertex="1">
          <mxGeometry width="30" height="30" as="geometry">
            <mxRectangle width="30" height="30" as="alternateBounds" />
          </mxGeometry>
        </mxCell>
        <mxCell id="bNYrujHuYFInBL5xQJTk-121" value="createdAt: Date" style="shape=partialRectangle;connectable=0;fillColor=none;top=0;left=0;bottom=0;right=0;align=left;spacingLeft=6;overflow=hidden;whiteSpace=wrap;html=1;" parent="bNYrujHuYFInBL5xQJTk-119" vertex="1">
          <mxGeometry x="30" width="190" height="30" as="geometry">
            <mxRectangle width="190" height="30" as="alternateBounds" />
          </mxGeometry>
        </mxCell>
        <mxCell id="bNYrujHuYFInBL5xQJTk-122" value="" style="shape=tableRow;horizontal=0;startSize=0;swimlaneHead=0;swimlaneBody=0;fillColor=none;collapsible=0;dropTarget=0;points=[[0,0.5],[1,0.5]];portConstraint=eastwest;top=0;left=0;right=0;bottom=0;" parent="bNYrujHuYFInBL5xQJTk-106" vertex="1">
          <mxGeometry y="180" width="220" height="30" as="geometry" />
        </mxCell>
        <mxCell id="bNYrujHuYFInBL5xQJTk-123" value="" style="shape=partialRectangle;connectable=0;fillColor=none;top=0;left=0;bottom=0;right=0;editable=1;overflow=hidden;whiteSpace=wrap;html=1;" parent="bNYrujHuYFInBL5xQJTk-122" vertex="1">
          <mxGeometry width="30" height="30" as="geometry">
            <mxRectangle width="30" height="30" as="alternateBounds" />
          </mxGeometry>
        </mxCell>
        <mxCell id="bNYrujHuYFInBL5xQJTk-124" value="updatedAt: Date" style="shape=partialRectangle;connectable=0;fillColor=none;top=0;left=0;bottom=0;right=0;align=left;spacingLeft=6;overflow=hidden;whiteSpace=wrap;html=1;" parent="bNYrujHuYFInBL5xQJTk-122" vertex="1">
          <mxGeometry x="30" width="190" height="30" as="geometry">
            <mxRectangle width="190" height="30" as="alternateBounds" />
          </mxGeometry>
        </mxCell>
        <mxCell id="bNYrujHuYFInBL5xQJTk-125" value="Category ( Danh mục sản phẩm )" style="shape=table;startSize=30;container=1;collapsible=1;childLayout=tableLayout;fixedRows=1;rowLines=0;fontStyle=1;align=center;resizeLast=1;html=1;" parent="1" vertex="1">
          <mxGeometry x="2000" y="2490" width="220" height="210" as="geometry" />
        </mxCell>
        <mxCell id="bNYrujHuYFInBL5xQJTk-126" value="" style="shape=tableRow;horizontal=0;startSize=0;swimlaneHead=0;swimlaneBody=0;fillColor=none;collapsible=0;dropTarget=0;points=[[0,0.5],[1,0.5]];portConstraint=eastwest;top=0;left=0;right=0;bottom=1;" parent="bNYrujHuYFInBL5xQJTk-125" vertex="1">
          <mxGeometry y="30" width="220" height="30" as="geometry" />
        </mxCell>
        <mxCell id="bNYrujHuYFInBL5xQJTk-127" value="PK" style="shape=partialRectangle;connectable=0;fillColor=none;top=0;left=0;bottom=0;right=0;fontStyle=1;overflow=hidden;whiteSpace=wrap;html=1;" parent="bNYrujHuYFInBL5xQJTk-126" vertex="1">
          <mxGeometry width="30" height="30" as="geometry">
            <mxRectangle width="30" height="30" as="alternateBounds" />
          </mxGeometry>
        </mxCell>
        <mxCell id="bNYrujHuYFInBL5xQJTk-128" value="_id: ObjectId" style="shape=partialRectangle;connectable=0;fillColor=none;top=0;left=0;bottom=0;right=0;align=left;spacingLeft=6;fontStyle=5;overflow=hidden;whiteSpace=wrap;html=1;" parent="bNYrujHuYFInBL5xQJTk-126" vertex="1">
          <mxGeometry x="30" width="190" height="30" as="geometry">
            <mxRectangle width="190" height="30" as="alternateBounds" />
          </mxGeometry>
        </mxCell>
        <mxCell id="bNYrujHuYFInBL5xQJTk-129" value="" style="shape=tableRow;horizontal=0;startSize=0;swimlaneHead=0;swimlaneBody=0;fillColor=none;collapsible=0;dropTarget=0;points=[[0,0.5],[1,0.5]];portConstraint=eastwest;top=0;left=0;right=0;bottom=0;" parent="bNYrujHuYFInBL5xQJTk-125" vertex="1">
          <mxGeometry y="60" width="220" height="30" as="geometry" />
        </mxCell>
        <mxCell id="bNYrujHuYFInBL5xQJTk-130" value="" style="shape=partialRectangle;connectable=0;fillColor=none;top=0;left=0;bottom=0;right=0;editable=1;overflow=hidden;whiteSpace=wrap;html=1;" parent="bNYrujHuYFInBL5xQJTk-129" vertex="1">
          <mxGeometry width="30" height="30" as="geometry">
            <mxRectangle width="30" height="30" as="alternateBounds" />
          </mxGeometry>
        </mxCell>
        <mxCell id="bNYrujHuYFInBL5xQJTk-131" value="name_category: string" style="shape=partialRectangle;connectable=0;fillColor=none;top=0;left=0;bottom=0;right=0;align=left;spacingLeft=6;overflow=hidden;whiteSpace=wrap;html=1;" parent="bNYrujHuYFInBL5xQJTk-129" vertex="1">
          <mxGeometry x="30" width="190" height="30" as="geometry">
            <mxRectangle width="190" height="30" as="alternateBounds" />
          </mxGeometry>
        </mxCell>
        <mxCell id="bNYrujHuYFInBL5xQJTk-132" value="" style="shape=tableRow;horizontal=0;startSize=0;swimlaneHead=0;swimlaneBody=0;fillColor=none;collapsible=0;dropTarget=0;points=[[0,0.5],[1,0.5]];portConstraint=eastwest;top=0;left=0;right=0;bottom=0;" parent="bNYrujHuYFInBL5xQJTk-125" vertex="1">
          <mxGeometry y="90" width="220" height="30" as="geometry" />
        </mxCell>
        <mxCell id="bNYrujHuYFInBL5xQJTk-133" value="" style="shape=partialRectangle;connectable=0;fillColor=none;top=0;left=0;bottom=0;right=0;editable=1;overflow=hidden;whiteSpace=wrap;html=1;" parent="bNYrujHuYFInBL5xQJTk-132" vertex="1">
          <mxGeometry width="30" height="30" as="geometry">
            <mxRectangle width="30" height="30" as="alternateBounds" />
          </mxGeometry>
        </mxCell>
        <mxCell id="bNYrujHuYFInBL5xQJTk-134" value="products: ObjectId[]" style="shape=partialRectangle;connectable=0;fillColor=none;top=0;left=0;bottom=0;right=0;align=left;spacingLeft=6;overflow=hidden;whiteSpace=wrap;html=1;" parent="bNYrujHuYFInBL5xQJTk-132" vertex="1">
          <mxGeometry x="30" width="190" height="30" as="geometry">
            <mxRectangle width="190" height="30" as="alternateBounds" />
          </mxGeometry>
        </mxCell>
        <mxCell id="bNYrujHuYFInBL5xQJTk-135" value="" style="shape=tableRow;horizontal=0;startSize=0;swimlaneHead=0;swimlaneBody=0;fillColor=none;collapsible=0;dropTarget=0;points=[[0,0.5],[1,0.5]];portConstraint=eastwest;top=0;left=0;right=0;bottom=0;" parent="bNYrujHuYFInBL5xQJTk-125" vertex="1">
          <mxGeometry y="120" width="220" height="30" as="geometry" />
        </mxCell>
        <mxCell id="bNYrujHuYFInBL5xQJTk-136" value="" style="shape=partialRectangle;connectable=0;fillColor=none;top=0;left=0;bottom=0;right=0;editable=1;overflow=hidden;whiteSpace=wrap;html=1;" parent="bNYrujHuYFInBL5xQJTk-135" vertex="1">
          <mxGeometry width="30" height="30" as="geometry">
            <mxRectangle width="30" height="30" as="alternateBounds" />
          </mxGeometry>
        </mxCell>
        <mxCell id="bNYrujHuYFInBL5xQJTk-137" value="brand: ObjectId[]" style="shape=partialRectangle;connectable=0;fillColor=none;top=0;left=0;bottom=0;right=0;align=left;spacingLeft=6;overflow=hidden;whiteSpace=wrap;html=1;" parent="bNYrujHuYFInBL5xQJTk-135" vertex="1">
          <mxGeometry x="30" width="190" height="30" as="geometry">
            <mxRectangle width="190" height="30" as="alternateBounds" />
          </mxGeometry>
        </mxCell>
        <mxCell id="bNYrujHuYFInBL5xQJTk-138" value="" style="shape=tableRow;horizontal=0;startSize=0;swimlaneHead=0;swimlaneBody=0;fillColor=none;collapsible=0;dropTarget=0;points=[[0,0.5],[1,0.5]];portConstraint=eastwest;top=0;left=0;right=0;bottom=0;" parent="bNYrujHuYFInBL5xQJTk-125" vertex="1">
          <mxGeometry y="150" width="220" height="30" as="geometry" />
        </mxCell>
        <mxCell id="bNYrujHuYFInBL5xQJTk-139" value="" style="shape=partialRectangle;connectable=0;fillColor=none;top=0;left=0;bottom=0;right=0;editable=1;overflow=hidden;whiteSpace=wrap;html=1;" parent="bNYrujHuYFInBL5xQJTk-138" vertex="1">
          <mxGeometry width="30" height="30" as="geometry">
            <mxRectangle width="30" height="30" as="alternateBounds" />
          </mxGeometry>
        </mxCell>
        <mxCell id="bNYrujHuYFInBL5xQJTk-140" value="createdAt: Date" style="shape=partialRectangle;connectable=0;fillColor=none;top=0;left=0;bottom=0;right=0;align=left;spacingLeft=6;overflow=hidden;whiteSpace=wrap;html=1;" parent="bNYrujHuYFInBL5xQJTk-138" vertex="1">
          <mxGeometry x="30" width="190" height="30" as="geometry">
            <mxRectangle width="190" height="30" as="alternateBounds" />
          </mxGeometry>
        </mxCell>
        <mxCell id="bNYrujHuYFInBL5xQJTk-141" value="" style="shape=tableRow;horizontal=0;startSize=0;swimlaneHead=0;swimlaneBody=0;fillColor=none;collapsible=0;dropTarget=0;points=[[0,0.5],[1,0.5]];portConstraint=eastwest;top=0;left=0;right=0;bottom=0;" parent="bNYrujHuYFInBL5xQJTk-125" vertex="1">
          <mxGeometry y="180" width="220" height="30" as="geometry" />
        </mxCell>
        <mxCell id="bNYrujHuYFInBL5xQJTk-142" value="" style="shape=partialRectangle;connectable=0;fillColor=none;top=0;left=0;bottom=0;right=0;editable=1;overflow=hidden;whiteSpace=wrap;html=1;" parent="bNYrujHuYFInBL5xQJTk-141" vertex="1">
          <mxGeometry width="30" height="30" as="geometry">
            <mxRectangle width="30" height="30" as="alternateBounds" />
          </mxGeometry>
        </mxCell>
        <mxCell id="bNYrujHuYFInBL5xQJTk-143" value="updatedAt: Date" style="shape=partialRectangle;connectable=0;fillColor=none;top=0;left=0;bottom=0;right=0;align=left;spacingLeft=6;overflow=hidden;whiteSpace=wrap;html=1;" parent="bNYrujHuYFInBL5xQJTk-141" vertex="1">
          <mxGeometry x="30" width="190" height="30" as="geometry">
            <mxRectangle width="190" height="30" as="alternateBounds" />
          </mxGeometry>
        </mxCell>
        <mxCell id="bNYrujHuYFInBL5xQJTk-144" value="Sub Cateogy ( Danh Mục Con )" style="shape=table;startSize=30;container=1;collapsible=1;childLayout=tableLayout;fixedRows=1;rowLines=0;fontStyle=1;align=center;resizeLast=1;html=1;" parent="1" vertex="1">
          <mxGeometry x="2340" y="2440" width="210" height="150" as="geometry" />
        </mxCell>
        <mxCell id="bNYrujHuYFInBL5xQJTk-145" value="" style="shape=tableRow;horizontal=0;startSize=0;swimlaneHead=0;swimlaneBody=0;fillColor=none;collapsible=0;dropTarget=0;points=[[0,0.5],[1,0.5]];portConstraint=eastwest;top=0;left=0;right=0;bottom=1;" parent="bNYrujHuYFInBL5xQJTk-144" vertex="1">
          <mxGeometry y="30" width="210" height="30" as="geometry" />
        </mxCell>
        <mxCell id="bNYrujHuYFInBL5xQJTk-146" value="PK" style="shape=partialRectangle;connectable=0;fillColor=none;top=0;left=0;bottom=0;right=0;fontStyle=1;overflow=hidden;whiteSpace=wrap;html=1;" parent="bNYrujHuYFInBL5xQJTk-145" vertex="1">
          <mxGeometry width="30" height="30" as="geometry">
            <mxRectangle width="30" height="30" as="alternateBounds" />
          </mxGeometry>
        </mxCell>
        <mxCell id="bNYrujHuYFInBL5xQJTk-147" value="_id: ObjectId" style="shape=partialRectangle;connectable=0;fillColor=none;top=0;left=0;bottom=0;right=0;align=left;spacingLeft=6;fontStyle=5;overflow=hidden;whiteSpace=wrap;html=1;" parent="bNYrujHuYFInBL5xQJTk-145" vertex="1">
          <mxGeometry x="30" width="180" height="30" as="geometry">
            <mxRectangle width="180" height="30" as="alternateBounds" />
          </mxGeometry>
        </mxCell>
        <mxCell id="bNYrujHuYFInBL5xQJTk-148" value="" style="shape=tableRow;horizontal=0;startSize=0;swimlaneHead=0;swimlaneBody=0;fillColor=none;collapsible=0;dropTarget=0;points=[[0,0.5],[1,0.5]];portConstraint=eastwest;top=0;left=0;right=0;bottom=0;" parent="bNYrujHuYFInBL5xQJTk-144" vertex="1">
          <mxGeometry y="60" width="210" height="30" as="geometry" />
        </mxCell>
        <mxCell id="bNYrujHuYFInBL5xQJTk-149" value="" style="shape=partialRectangle;connectable=0;fillColor=none;top=0;left=0;bottom=0;right=0;editable=1;overflow=hidden;whiteSpace=wrap;html=1;" parent="bNYrujHuYFInBL5xQJTk-148" vertex="1">
          <mxGeometry width="30" height="30" as="geometry">
            <mxRectangle width="30" height="30" as="alternateBounds" />
          </mxGeometry>
        </mxCell>
        <mxCell id="bNYrujHuYFInBL5xQJTk-150" value="name_sub_cagory: string" style="shape=partialRectangle;connectable=0;fillColor=none;top=0;left=0;bottom=0;right=0;align=left;spacingLeft=6;overflow=hidden;whiteSpace=wrap;html=1;" parent="bNYrujHuYFInBL5xQJTk-148" vertex="1">
          <mxGeometry x="30" width="180" height="30" as="geometry">
            <mxRectangle width="180" height="30" as="alternateBounds" />
          </mxGeometry>
        </mxCell>
        <mxCell id="bNYrujHuYFInBL5xQJTk-151" value="" style="shape=tableRow;horizontal=0;startSize=0;swimlaneHead=0;swimlaneBody=0;fillColor=none;collapsible=0;dropTarget=0;points=[[0,0.5],[1,0.5]];portConstraint=eastwest;top=0;left=0;right=0;bottom=0;" parent="bNYrujHuYFInBL5xQJTk-144" vertex="1">
          <mxGeometry y="90" width="210" height="30" as="geometry" />
        </mxCell>
        <mxCell id="bNYrujHuYFInBL5xQJTk-152" value="" style="shape=partialRectangle;connectable=0;fillColor=none;top=0;left=0;bottom=0;right=0;editable=1;overflow=hidden;whiteSpace=wrap;html=1;" parent="bNYrujHuYFInBL5xQJTk-151" vertex="1">
          <mxGeometry width="30" height="30" as="geometry">
            <mxRectangle width="30" height="30" as="alternateBounds" />
          </mxGeometry>
        </mxCell>
        <mxCell id="bNYrujHuYFInBL5xQJTk-153" value="brands: Objectjd[]" style="shape=partialRectangle;connectable=0;fillColor=none;top=0;left=0;bottom=0;right=0;align=left;spacingLeft=6;overflow=hidden;whiteSpace=wrap;html=1;" parent="bNYrujHuYFInBL5xQJTk-151" vertex="1">
          <mxGeometry x="30" width="180" height="30" as="geometry">
            <mxRectangle width="180" height="30" as="alternateBounds" />
          </mxGeometry>
        </mxCell>
        <mxCell id="bNYrujHuYFInBL5xQJTk-154" value="" style="shape=tableRow;horizontal=0;startSize=0;swimlaneHead=0;swimlaneBody=0;fillColor=none;collapsible=0;dropTarget=0;points=[[0,0.5],[1,0.5]];portConstraint=eastwest;top=0;left=0;right=0;bottom=0;" parent="bNYrujHuYFInBL5xQJTk-144" vertex="1">
          <mxGeometry y="120" width="210" height="30" as="geometry" />
        </mxCell>
        <mxCell id="bNYrujHuYFInBL5xQJTk-155" value="" style="shape=partialRectangle;connectable=0;fillColor=none;top=0;left=0;bottom=0;right=0;editable=1;overflow=hidden;whiteSpace=wrap;html=1;" parent="bNYrujHuYFInBL5xQJTk-154" vertex="1">
          <mxGeometry width="30" height="30" as="geometry">
            <mxRectangle width="30" height="30" as="alternateBounds" />
          </mxGeometry>
        </mxCell>
        <mxCell id="bNYrujHuYFInBL5xQJTk-156" value="createdAt: Date" style="shape=partialRectangle;connectable=0;fillColor=none;top=0;left=0;bottom=0;right=0;align=left;spacingLeft=6;overflow=hidden;whiteSpace=wrap;html=1;" parent="bNYrujHuYFInBL5xQJTk-154" vertex="1">
          <mxGeometry x="30" width="180" height="30" as="geometry">
            <mxRectangle width="180" height="30" as="alternateBounds" />
          </mxGeometry>
        </mxCell>
        <mxCell id="bNYrujHuYFInBL5xQJTk-157" value="Brand ( Thương hiệu )" style="shape=table;startSize=30;container=1;collapsible=1;childLayout=tableLayout;fixedRows=1;rowLines=0;fontStyle=1;align=center;resizeLast=1;html=1;" parent="1" vertex="1">
          <mxGeometry x="2620" y="2290" width="180" height="90" as="geometry" />
        </mxCell>
        <mxCell id="bNYrujHuYFInBL5xQJTk-158" value="" style="shape=tableRow;horizontal=0;startSize=0;swimlaneHead=0;swimlaneBody=0;fillColor=none;collapsible=0;dropTarget=0;points=[[0,0.5],[1,0.5]];portConstraint=eastwest;top=0;left=0;right=0;bottom=1;" parent="bNYrujHuYFInBL5xQJTk-157" vertex="1">
          <mxGeometry y="30" width="180" height="30" as="geometry" />
        </mxCell>
        <mxCell id="bNYrujHuYFInBL5xQJTk-159" value="PK" style="shape=partialRectangle;connectable=0;fillColor=none;top=0;left=0;bottom=0;right=0;fontStyle=1;overflow=hidden;whiteSpace=wrap;html=1;" parent="bNYrujHuYFInBL5xQJTk-158" vertex="1">
          <mxGeometry width="30" height="30" as="geometry">
            <mxRectangle width="30" height="30" as="alternateBounds" />
          </mxGeometry>
        </mxCell>
        <mxCell id="bNYrujHuYFInBL5xQJTk-160" value="_id: ObjectId" style="shape=partialRectangle;connectable=0;fillColor=none;top=0;left=0;bottom=0;right=0;align=left;spacingLeft=6;fontStyle=5;overflow=hidden;whiteSpace=wrap;html=1;" parent="bNYrujHuYFInBL5xQJTk-158" vertex="1">
          <mxGeometry x="30" width="150" height="30" as="geometry">
            <mxRectangle width="150" height="30" as="alternateBounds" />
          </mxGeometry>
        </mxCell>
        <mxCell id="bNYrujHuYFInBL5xQJTk-161" value="" style="shape=tableRow;horizontal=0;startSize=0;swimlaneHead=0;swimlaneBody=0;fillColor=none;collapsible=0;dropTarget=0;points=[[0,0.5],[1,0.5]];portConstraint=eastwest;top=0;left=0;right=0;bottom=0;" parent="bNYrujHuYFInBL5xQJTk-157" vertex="1">
          <mxGeometry y="60" width="180" height="30" as="geometry" />
        </mxCell>
        <mxCell id="bNYrujHuYFInBL5xQJTk-162" value="" style="shape=partialRectangle;connectable=0;fillColor=none;top=0;left=0;bottom=0;right=0;editable=1;overflow=hidden;whiteSpace=wrap;html=1;" parent="bNYrujHuYFInBL5xQJTk-161" vertex="1">
          <mxGeometry width="30" height="30" as="geometry">
            <mxRectangle width="30" height="30" as="alternateBounds" />
          </mxGeometry>
        </mxCell>
        <mxCell id="bNYrujHuYFInBL5xQJTk-163" value="name_brand: string" style="shape=partialRectangle;connectable=0;fillColor=none;top=0;left=0;bottom=0;right=0;align=left;spacingLeft=6;overflow=hidden;whiteSpace=wrap;html=1;" parent="bNYrujHuYFInBL5xQJTk-161" vertex="1">
          <mxGeometry x="30" width="150" height="30" as="geometry">
            <mxRectangle width="150" height="30" as="alternateBounds" />
          </mxGeometry>
        </mxCell>
        <mxCell id="bNYrujHuYFInBL5xQJTk-170" value="Images ( HÌnh ảnh )" style="shape=table;startSize=30;container=1;collapsible=1;childLayout=tableLayout;fixedRows=1;rowLines=0;fontStyle=1;align=center;resizeLast=1;html=1;" parent="1" vertex="1">
          <mxGeometry x="1370" y="2100" width="180" height="120" as="geometry" />
        </mxCell>
        <mxCell id="bNYrujHuYFInBL5xQJTk-171" value="" style="shape=tableRow;horizontal=0;startSize=0;swimlaneHead=0;swimlaneBody=0;fillColor=none;collapsible=0;dropTarget=0;points=[[0,0.5],[1,0.5]];portConstraint=eastwest;top=0;left=0;right=0;bottom=1;" parent="bNYrujHuYFInBL5xQJTk-170" vertex="1">
          <mxGeometry y="30" width="180" height="30" as="geometry" />
        </mxCell>
        <mxCell id="bNYrujHuYFInBL5xQJTk-172" value="PK" style="shape=partialRectangle;connectable=0;fillColor=none;top=0;left=0;bottom=0;right=0;fontStyle=1;overflow=hidden;whiteSpace=wrap;html=1;" parent="bNYrujHuYFInBL5xQJTk-171" vertex="1">
          <mxGeometry width="30" height="30" as="geometry">
            <mxRectangle width="30" height="30" as="alternateBounds" />
          </mxGeometry>
        </mxCell>
        <mxCell id="bNYrujHuYFInBL5xQJTk-173" value="_id: ObjectId" style="shape=partialRectangle;connectable=0;fillColor=none;top=0;left=0;bottom=0;right=0;align=left;spacingLeft=6;fontStyle=5;overflow=hidden;whiteSpace=wrap;html=1;" parent="bNYrujHuYFInBL5xQJTk-171" vertex="1">
          <mxGeometry x="30" width="150" height="30" as="geometry">
            <mxRectangle width="150" height="30" as="alternateBounds" />
          </mxGeometry>
        </mxCell>
        <mxCell id="bNYrujHuYFInBL5xQJTk-174" value="" style="shape=tableRow;horizontal=0;startSize=0;swimlaneHead=0;swimlaneBody=0;fillColor=none;collapsible=0;dropTarget=0;points=[[0,0.5],[1,0.5]];portConstraint=eastwest;top=0;left=0;right=0;bottom=0;" parent="bNYrujHuYFInBL5xQJTk-170" vertex="1">
          <mxGeometry y="60" width="180" height="30" as="geometry" />
        </mxCell>
        <mxCell id="bNYrujHuYFInBL5xQJTk-175" value="" style="shape=partialRectangle;connectable=0;fillColor=none;top=0;left=0;bottom=0;right=0;editable=1;overflow=hidden;whiteSpace=wrap;html=1;" parent="bNYrujHuYFInBL5xQJTk-174" vertex="1">
          <mxGeometry width="30" height="30" as="geometry">
            <mxRectangle width="30" height="30" as="alternateBounds" />
          </mxGeometry>
        </mxCell>
        <mxCell id="bNYrujHuYFInBL5xQJTk-176" value="url: string" style="shape=partialRectangle;connectable=0;fillColor=none;top=0;left=0;bottom=0;right=0;align=left;spacingLeft=6;overflow=hidden;whiteSpace=wrap;html=1;" parent="bNYrujHuYFInBL5xQJTk-174" vertex="1">
          <mxGeometry x="30" width="150" height="30" as="geometry">
            <mxRectangle width="150" height="30" as="alternateBounds" />
          </mxGeometry>
        </mxCell>
        <mxCell id="bNYrujHuYFInBL5xQJTk-177" value="" style="shape=tableRow;horizontal=0;startSize=0;swimlaneHead=0;swimlaneBody=0;fillColor=none;collapsible=0;dropTarget=0;points=[[0,0.5],[1,0.5]];portConstraint=eastwest;top=0;left=0;right=0;bottom=0;" parent="bNYrujHuYFInBL5xQJTk-170" vertex="1">
          <mxGeometry y="90" width="180" height="30" as="geometry" />
        </mxCell>
        <mxCell id="bNYrujHuYFInBL5xQJTk-178" value="" style="shape=partialRectangle;connectable=0;fillColor=none;top=0;left=0;bottom=0;right=0;editable=1;overflow=hidden;whiteSpace=wrap;html=1;" parent="bNYrujHuYFInBL5xQJTk-177" vertex="1">
          <mxGeometry width="30" height="30" as="geometry">
            <mxRectangle width="30" height="30" as="alternateBounds" />
          </mxGeometry>
        </mxCell>
        <mxCell id="bNYrujHuYFInBL5xQJTk-179" value="publicId: string" style="shape=partialRectangle;connectable=0;fillColor=none;top=0;left=0;bottom=0;right=0;align=left;spacingLeft=6;overflow=hidden;whiteSpace=wrap;html=1;" parent="bNYrujHuYFInBL5xQJTk-177" vertex="1">
          <mxGeometry x="30" width="150" height="30" as="geometry">
            <mxRectangle width="150" height="30" as="alternateBounds" />
          </mxGeometry>
        </mxCell>
        <mxCell id="bNYrujHuYFInBL5xQJTk-183" value="Carts ( Giỏ hàng)" style="shape=table;startSize=30;container=1;collapsible=1;childLayout=tableLayout;fixedRows=1;rowLines=0;fontStyle=1;align=center;resizeLast=1;html=1;" parent="1" vertex="1">
          <mxGeometry x="1580" y="2750" width="180" height="240" as="geometry" />
        </mxCell>
        <mxCell id="bNYrujHuYFInBL5xQJTk-184" value="" style="shape=tableRow;horizontal=0;startSize=0;swimlaneHead=0;swimlaneBody=0;fillColor=none;collapsible=0;dropTarget=0;points=[[0,0.5],[1,0.5]];portConstraint=eastwest;top=0;left=0;right=0;bottom=1;" parent="bNYrujHuYFInBL5xQJTk-183" vertex="1">
          <mxGeometry y="30" width="180" height="30" as="geometry" />
        </mxCell>
        <mxCell id="bNYrujHuYFInBL5xQJTk-185" value="PK" style="shape=partialRectangle;connectable=0;fillColor=none;top=0;left=0;bottom=0;right=0;fontStyle=1;overflow=hidden;whiteSpace=wrap;html=1;" parent="bNYrujHuYFInBL5xQJTk-184" vertex="1">
          <mxGeometry width="30" height="30" as="geometry">
            <mxRectangle width="30" height="30" as="alternateBounds" />
          </mxGeometry>
        </mxCell>
        <mxCell id="bNYrujHuYFInBL5xQJTk-186" value="_id: ObjectId" style="shape=partialRectangle;connectable=0;fillColor=none;top=0;left=0;bottom=0;right=0;align=left;spacingLeft=6;fontStyle=5;overflow=hidden;whiteSpace=wrap;html=1;" parent="bNYrujHuYFInBL5xQJTk-184" vertex="1">
          <mxGeometry x="30" width="150" height="30" as="geometry">
            <mxRectangle width="150" height="30" as="alternateBounds" />
          </mxGeometry>
        </mxCell>
        <mxCell id="bNYrujHuYFInBL5xQJTk-187" value="" style="shape=tableRow;horizontal=0;startSize=0;swimlaneHead=0;swimlaneBody=0;fillColor=none;collapsible=0;dropTarget=0;points=[[0,0.5],[1,0.5]];portConstraint=eastwest;top=0;left=0;right=0;bottom=0;" parent="bNYrujHuYFInBL5xQJTk-183" vertex="1">
          <mxGeometry y="60" width="180" height="30" as="geometry" />
        </mxCell>
        <mxCell id="bNYrujHuYFInBL5xQJTk-188" value="" style="shape=partialRectangle;connectable=0;fillColor=none;top=0;left=0;bottom=0;right=0;editable=1;overflow=hidden;whiteSpace=wrap;html=1;" parent="bNYrujHuYFInBL5xQJTk-187" vertex="1">
          <mxGeometry width="30" height="30" as="geometry">
            <mxRectangle width="30" height="30" as="alternateBounds" />
          </mxGeometry>
        </mxCell>
        <mxCell id="bNYrujHuYFInBL5xQJTk-189" value="name_product: ObjectId" style="shape=partialRectangle;connectable=0;fillColor=none;top=0;left=0;bottom=0;right=0;align=left;spacingLeft=6;overflow=hidden;whiteSpace=wrap;html=1;" parent="bNYrujHuYFInBL5xQJTk-187" vertex="1">
          <mxGeometry x="30" width="150" height="30" as="geometry">
            <mxRectangle width="150" height="30" as="alternateBounds" />
          </mxGeometry>
        </mxCell>
        <mxCell id="bNYrujHuYFInBL5xQJTk-190" value="" style="shape=tableRow;horizontal=0;startSize=0;swimlaneHead=0;swimlaneBody=0;fillColor=none;collapsible=0;dropTarget=0;points=[[0,0.5],[1,0.5]];portConstraint=eastwest;top=0;left=0;right=0;bottom=0;" parent="bNYrujHuYFInBL5xQJTk-183" vertex="1">
          <mxGeometry y="90" width="180" height="30" as="geometry" />
        </mxCell>
        <mxCell id="bNYrujHuYFInBL5xQJTk-191" value="" style="shape=partialRectangle;connectable=0;fillColor=none;top=0;left=0;bottom=0;right=0;editable=1;overflow=hidden;whiteSpace=wrap;html=1;" parent="bNYrujHuYFInBL5xQJTk-190" vertex="1">
          <mxGeometry width="30" height="30" as="geometry">
            <mxRectangle width="30" height="30" as="alternateBounds" />
          </mxGeometry>
        </mxCell>
        <mxCell id="bNYrujHuYFInBL5xQJTk-192" value="size: ObjectId" style="shape=partialRectangle;connectable=0;fillColor=none;top=0;left=0;bottom=0;right=0;align=left;spacingLeft=6;overflow=hidden;whiteSpace=wrap;html=1;" parent="bNYrujHuYFInBL5xQJTk-190" vertex="1">
          <mxGeometry x="30" width="150" height="30" as="geometry">
            <mxRectangle width="150" height="30" as="alternateBounds" />
          </mxGeometry>
        </mxCell>
        <mxCell id="bNYrujHuYFInBL5xQJTk-193" value="" style="shape=tableRow;horizontal=0;startSize=0;swimlaneHead=0;swimlaneBody=0;fillColor=none;collapsible=0;dropTarget=0;points=[[0,0.5],[1,0.5]];portConstraint=eastwest;top=0;left=0;right=0;bottom=0;" parent="bNYrujHuYFInBL5xQJTk-183" vertex="1">
          <mxGeometry y="120" width="180" height="30" as="geometry" />
        </mxCell>
        <mxCell id="bNYrujHuYFInBL5xQJTk-194" value="" style="shape=partialRectangle;connectable=0;fillColor=none;top=0;left=0;bottom=0;right=0;editable=1;overflow=hidden;whiteSpace=wrap;html=1;" parent="bNYrujHuYFInBL5xQJTk-193" vertex="1">
          <mxGeometry width="30" height="30" as="geometry">
            <mxRectangle width="30" height="30" as="alternateBounds" />
          </mxGeometry>
        </mxCell>
        <mxCell id="bNYrujHuYFInBL5xQJTk-195" value="quantity: number" style="shape=partialRectangle;connectable=0;fillColor=none;top=0;left=0;bottom=0;right=0;align=left;spacingLeft=6;overflow=hidden;whiteSpace=wrap;html=1;" parent="bNYrujHuYFInBL5xQJTk-193" vertex="1">
          <mxGeometry x="30" width="150" height="30" as="geometry">
            <mxRectangle width="150" height="30" as="alternateBounds" />
          </mxGeometry>
        </mxCell>
        <mxCell id="bNYrujHuYFInBL5xQJTk-196" value="" style="shape=tableRow;horizontal=0;startSize=0;swimlaneHead=0;swimlaneBody=0;fillColor=none;collapsible=0;dropTarget=0;points=[[0,0.5],[1,0.5]];portConstraint=eastwest;top=0;left=0;right=0;bottom=0;" parent="bNYrujHuYFInBL5xQJTk-183" vertex="1">
          <mxGeometry y="150" width="180" height="30" as="geometry" />
        </mxCell>
        <mxCell id="bNYrujHuYFInBL5xQJTk-197" value="" style="shape=partialRectangle;connectable=0;fillColor=none;top=0;left=0;bottom=0;right=0;editable=1;overflow=hidden;whiteSpace=wrap;html=1;" parent="bNYrujHuYFInBL5xQJTk-196" vertex="1">
          <mxGeometry width="30" height="30" as="geometry">
            <mxRectangle width="30" height="30" as="alternateBounds" />
          </mxGeometry>
        </mxCell>
        <mxCell id="bNYrujHuYFInBL5xQJTk-198" value="price: number" style="shape=partialRectangle;connectable=0;fillColor=none;top=0;left=0;bottom=0;right=0;align=left;spacingLeft=6;overflow=hidden;whiteSpace=wrap;html=1;" parent="bNYrujHuYFInBL5xQJTk-196" vertex="1">
          <mxGeometry x="30" width="150" height="30" as="geometry">
            <mxRectangle width="150" height="30" as="alternateBounds" />
          </mxGeometry>
        </mxCell>
        <mxCell id="bNYrujHuYFInBL5xQJTk-199" value="" style="shape=tableRow;horizontal=0;startSize=0;swimlaneHead=0;swimlaneBody=0;fillColor=none;collapsible=0;dropTarget=0;points=[[0,0.5],[1,0.5]];portConstraint=eastwest;top=0;left=0;right=0;bottom=0;" parent="bNYrujHuYFInBL5xQJTk-183" vertex="1">
          <mxGeometry y="180" width="180" height="30" as="geometry" />
        </mxCell>
        <mxCell id="bNYrujHuYFInBL5xQJTk-200" value="" style="shape=partialRectangle;connectable=0;fillColor=none;top=0;left=0;bottom=0;right=0;editable=1;overflow=hidden;whiteSpace=wrap;html=1;" parent="bNYrujHuYFInBL5xQJTk-199" vertex="1">
          <mxGeometry width="30" height="30" as="geometry">
            <mxRectangle width="30" height="30" as="alternateBounds" />
          </mxGeometry>
        </mxCell>
        <mxCell id="bNYrujHuYFInBL5xQJTk-201" value="createdAt: number" style="shape=partialRectangle;connectable=0;fillColor=none;top=0;left=0;bottom=0;right=0;align=left;spacingLeft=6;overflow=hidden;whiteSpace=wrap;html=1;" parent="bNYrujHuYFInBL5xQJTk-199" vertex="1">
          <mxGeometry x="30" width="150" height="30" as="geometry">
            <mxRectangle width="150" height="30" as="alternateBounds" />
          </mxGeometry>
        </mxCell>
        <mxCell id="bNYrujHuYFInBL5xQJTk-202" value="" style="shape=tableRow;horizontal=0;startSize=0;swimlaneHead=0;swimlaneBody=0;fillColor=none;collapsible=0;dropTarget=0;points=[[0,0.5],[1,0.5]];portConstraint=eastwest;top=0;left=0;right=0;bottom=0;" parent="bNYrujHuYFInBL5xQJTk-183" vertex="1">
          <mxGeometry y="210" width="180" height="30" as="geometry" />
        </mxCell>
        <mxCell id="bNYrujHuYFInBL5xQJTk-203" value="" style="shape=partialRectangle;connectable=0;fillColor=none;top=0;left=0;bottom=0;right=0;editable=1;overflow=hidden;whiteSpace=wrap;html=1;" parent="bNYrujHuYFInBL5xQJTk-202" vertex="1">
          <mxGeometry width="30" height="30" as="geometry">
            <mxRectangle width="30" height="30" as="alternateBounds" />
          </mxGeometry>
        </mxCell>
        <mxCell id="bNYrujHuYFInBL5xQJTk-204" value="updatedAt: number" style="shape=partialRectangle;connectable=0;fillColor=none;top=0;left=0;bottom=0;right=0;align=left;spacingLeft=6;overflow=hidden;whiteSpace=wrap;html=1;" parent="bNYrujHuYFInBL5xQJTk-202" vertex="1">
          <mxGeometry x="30" width="150" height="30" as="geometry">
            <mxRectangle width="150" height="30" as="alternateBounds" />
          </mxGeometry>
        </mxCell>
        <mxCell id="bNYrujHuYFInBL5xQJTk-208" value="Order ( Đơn hàng)" style="shape=table;startSize=30;container=1;collapsible=1;childLayout=tableLayout;fixedRows=1;rowLines=0;fontStyle=1;align=center;resizeLast=1;html=1;" parent="1" vertex="1">
          <mxGeometry x="1870" y="2800" width="180" height="360" as="geometry" />
        </mxCell>
        <mxCell id="bNYrujHuYFInBL5xQJTk-209" value="" style="shape=tableRow;horizontal=0;startSize=0;swimlaneHead=0;swimlaneBody=0;fillColor=none;collapsible=0;dropTarget=0;points=[[0,0.5],[1,0.5]];portConstraint=eastwest;top=0;left=0;right=0;bottom=1;" parent="bNYrujHuYFInBL5xQJTk-208" vertex="1">
          <mxGeometry y="30" width="180" height="30" as="geometry" />
        </mxCell>
        <mxCell id="bNYrujHuYFInBL5xQJTk-210" value="PK" style="shape=partialRectangle;connectable=0;fillColor=none;top=0;left=0;bottom=0;right=0;fontStyle=1;overflow=hidden;whiteSpace=wrap;html=1;" parent="bNYrujHuYFInBL5xQJTk-209" vertex="1">
          <mxGeometry width="30" height="30" as="geometry">
            <mxRectangle width="30" height="30" as="alternateBounds" />
          </mxGeometry>
        </mxCell>
        <mxCell id="bNYrujHuYFInBL5xQJTk-211" value="_id: ObjectId" style="shape=partialRectangle;connectable=0;fillColor=none;top=0;left=0;bottom=0;right=0;align=left;spacingLeft=6;fontStyle=5;overflow=hidden;whiteSpace=wrap;html=1;" parent="bNYrujHuYFInBL5xQJTk-209" vertex="1">
          <mxGeometry x="30" width="150" height="30" as="geometry">
            <mxRectangle width="150" height="30" as="alternateBounds" />
          </mxGeometry>
        </mxCell>
        <mxCell id="bNYrujHuYFInBL5xQJTk-212" value="" style="shape=tableRow;horizontal=0;startSize=0;swimlaneHead=0;swimlaneBody=0;fillColor=none;collapsible=0;dropTarget=0;points=[[0,0.5],[1,0.5]];portConstraint=eastwest;top=0;left=0;right=0;bottom=0;" parent="bNYrujHuYFInBL5xQJTk-208" vertex="1">
          <mxGeometry y="60" width="180" height="30" as="geometry" />
        </mxCell>
        <mxCell id="bNYrujHuYFInBL5xQJTk-213" value="" style="shape=partialRectangle;connectable=0;fillColor=none;top=0;left=0;bottom=0;right=0;editable=1;overflow=hidden;whiteSpace=wrap;html=1;" parent="bNYrujHuYFInBL5xQJTk-212" vertex="1">
          <mxGeometry width="30" height="30" as="geometry">
            <mxRectangle width="30" height="30" as="alternateBounds" />
          </mxGeometry>
        </mxCell>
        <mxCell id="bNYrujHuYFInBL5xQJTk-214" value="user_id_confirm: ObjectId" style="shape=partialRectangle;connectable=0;fillColor=none;top=0;left=0;bottom=0;right=0;align=left;spacingLeft=6;overflow=hidden;whiteSpace=wrap;html=1;" parent="bNYrujHuYFInBL5xQJTk-212" vertex="1">
          <mxGeometry x="30" width="150" height="30" as="geometry">
            <mxRectangle width="150" height="30" as="alternateBounds" />
          </mxGeometry>
        </mxCell>
        <mxCell id="bNYrujHuYFInBL5xQJTk-215" value="" style="shape=tableRow;horizontal=0;startSize=0;swimlaneHead=0;swimlaneBody=0;fillColor=none;collapsible=0;dropTarget=0;points=[[0,0.5],[1,0.5]];portConstraint=eastwest;top=0;left=0;right=0;bottom=0;" parent="bNYrujHuYFInBL5xQJTk-208" vertex="1">
          <mxGeometry y="90" width="180" height="30" as="geometry" />
        </mxCell>
        <mxCell id="bNYrujHuYFInBL5xQJTk-216" value="" style="shape=partialRectangle;connectable=0;fillColor=none;top=0;left=0;bottom=0;right=0;editable=1;overflow=hidden;whiteSpace=wrap;html=1;" parent="bNYrujHuYFInBL5xQJTk-215" vertex="1">
          <mxGeometry width="30" height="30" as="geometry">
            <mxRectangle width="30" height="30" as="alternateBounds" />
          </mxGeometry>
        </mxCell>
        <mxCell id="bNYrujHuYFInBL5xQJTk-217" value="user_id: ObjectId" style="shape=partialRectangle;connectable=0;fillColor=none;top=0;left=0;bottom=0;right=0;align=left;spacingLeft=6;overflow=hidden;whiteSpace=wrap;html=1;" parent="bNYrujHuYFInBL5xQJTk-215" vertex="1">
          <mxGeometry x="30" width="150" height="30" as="geometry">
            <mxRectangle width="150" height="30" as="alternateBounds" />
          </mxGeometry>
        </mxCell>
        <mxCell id="bNYrujHuYFInBL5xQJTk-218" value="" style="shape=tableRow;horizontal=0;startSize=0;swimlaneHead=0;swimlaneBody=0;fillColor=none;collapsible=0;dropTarget=0;points=[[0,0.5],[1,0.5]];portConstraint=eastwest;top=0;left=0;right=0;bottom=0;" parent="bNYrujHuYFInBL5xQJTk-208" vertex="1">
          <mxGeometry y="120" width="180" height="30" as="geometry" />
        </mxCell>
        <mxCell id="bNYrujHuYFInBL5xQJTk-219" value="" style="shape=partialRectangle;connectable=0;fillColor=none;top=0;left=0;bottom=0;right=0;editable=1;overflow=hidden;whiteSpace=wrap;html=1;" parent="bNYrujHuYFInBL5xQJTk-218" vertex="1">
          <mxGeometry width="30" height="30" as="geometry">
            <mxRectangle width="30" height="30" as="alternateBounds" />
          </mxGeometry>
        </mxCell>
        <mxCell id="bNYrujHuYFInBL5xQJTk-220" value="status_order: string" style="shape=partialRectangle;connectable=0;fillColor=none;top=0;left=0;bottom=0;right=0;align=left;spacingLeft=6;overflow=hidden;whiteSpace=wrap;html=1;" parent="bNYrujHuYFInBL5xQJTk-218" vertex="1">
          <mxGeometry x="30" width="150" height="30" as="geometry">
            <mxRectangle width="150" height="30" as="alternateBounds" />
          </mxGeometry>
        </mxCell>
        <mxCell id="bNYrujHuYFInBL5xQJTk-221" value="" style="shape=tableRow;horizontal=0;startSize=0;swimlaneHead=0;swimlaneBody=0;fillColor=none;collapsible=0;dropTarget=0;points=[[0,0.5],[1,0.5]];portConstraint=eastwest;top=0;left=0;right=0;bottom=0;" parent="bNYrujHuYFInBL5xQJTk-208" vertex="1">
          <mxGeometry y="150" width="180" height="30" as="geometry" />
        </mxCell>
        <mxCell id="bNYrujHuYFInBL5xQJTk-222" value="" style="shape=partialRectangle;connectable=0;fillColor=none;top=0;left=0;bottom=0;right=0;editable=1;overflow=hidden;whiteSpace=wrap;html=1;" parent="bNYrujHuYFInBL5xQJTk-221" vertex="1">
          <mxGeometry width="30" height="30" as="geometry">
            <mxRectangle width="30" height="30" as="alternateBounds" />
          </mxGeometry>
        </mxCell>
        <mxCell id="bNYrujHuYFInBL5xQJTk-223" value="createdAt: Date" style="shape=partialRectangle;connectable=0;fillColor=none;top=0;left=0;bottom=0;right=0;align=left;spacingLeft=6;overflow=hidden;whiteSpace=wrap;html=1;" parent="bNYrujHuYFInBL5xQJTk-221" vertex="1">
          <mxGeometry x="30" width="150" height="30" as="geometry">
            <mxRectangle width="150" height="30" as="alternateBounds" />
          </mxGeometry>
        </mxCell>
        <mxCell id="bNYrujHuYFInBL5xQJTk-224" value="" style="shape=tableRow;horizontal=0;startSize=0;swimlaneHead=0;swimlaneBody=0;fillColor=none;collapsible=0;dropTarget=0;points=[[0,0.5],[1,0.5]];portConstraint=eastwest;top=0;left=0;right=0;bottom=0;" parent="bNYrujHuYFInBL5xQJTk-208" vertex="1">
          <mxGeometry y="180" width="180" height="30" as="geometry" />
        </mxCell>
        <mxCell id="bNYrujHuYFInBL5xQJTk-225" value="" style="shape=partialRectangle;connectable=0;fillColor=none;top=0;left=0;bottom=0;right=0;editable=1;overflow=hidden;whiteSpace=wrap;html=1;" parent="bNYrujHuYFInBL5xQJTk-224" vertex="1">
          <mxGeometry width="30" height="30" as="geometry">
            <mxRectangle width="30" height="30" as="alternateBounds" />
          </mxGeometry>
        </mxCell>
        <mxCell id="bNYrujHuYFInBL5xQJTk-226" value="updatedAt: Date" style="shape=partialRectangle;connectable=0;fillColor=none;top=0;left=0;bottom=0;right=0;align=left;spacingLeft=6;overflow=hidden;whiteSpace=wrap;html=1;" parent="bNYrujHuYFInBL5xQJTk-224" vertex="1">
          <mxGeometry x="30" width="150" height="30" as="geometry">
            <mxRectangle width="150" height="30" as="alternateBounds" />
          </mxGeometry>
        </mxCell>
        <mxCell id="bNYrujHuYFInBL5xQJTk-227" value="" style="shape=tableRow;horizontal=0;startSize=0;swimlaneHead=0;swimlaneBody=0;fillColor=none;collapsible=0;dropTarget=0;points=[[0,0.5],[1,0.5]];portConstraint=eastwest;top=0;left=0;right=0;bottom=0;" parent="bNYrujHuYFInBL5xQJTk-208" vertex="1">
          <mxGeometry y="210" width="180" height="30" as="geometry" />
        </mxCell>
        <mxCell id="bNYrujHuYFInBL5xQJTk-228" value="" style="shape=partialRectangle;connectable=0;fillColor=none;top=0;left=0;bottom=0;right=0;editable=1;overflow=hidden;whiteSpace=wrap;html=1;" parent="bNYrujHuYFInBL5xQJTk-227" vertex="1">
          <mxGeometry width="30" height="30" as="geometry">
            <mxRectangle width="30" height="30" as="alternateBounds" />
          </mxGeometry>
        </mxCell>
        <mxCell id="bNYrujHuYFInBL5xQJTk-229" value="address: string" style="shape=partialRectangle;connectable=0;fillColor=none;top=0;left=0;bottom=0;right=0;align=left;spacingLeft=6;overflow=hidden;whiteSpace=wrap;html=1;" parent="bNYrujHuYFInBL5xQJTk-227" vertex="1">
          <mxGeometry x="30" width="150" height="30" as="geometry">
            <mxRectangle width="150" height="30" as="alternateBounds" />
          </mxGeometry>
        </mxCell>
        <mxCell id="bNYrujHuYFInBL5xQJTk-230" value="" style="shape=tableRow;horizontal=0;startSize=0;swimlaneHead=0;swimlaneBody=0;fillColor=none;collapsible=0;dropTarget=0;points=[[0,0.5],[1,0.5]];portConstraint=eastwest;top=0;left=0;right=0;bottom=0;" parent="bNYrujHuYFInBL5xQJTk-208" vertex="1">
          <mxGeometry y="240" width="180" height="30" as="geometry" />
        </mxCell>
        <mxCell id="bNYrujHuYFInBL5xQJTk-231" value="" style="shape=partialRectangle;connectable=0;fillColor=none;top=0;left=0;bottom=0;right=0;editable=1;overflow=hidden;whiteSpace=wrap;html=1;" parent="bNYrujHuYFInBL5xQJTk-230" vertex="1">
          <mxGeometry width="30" height="30" as="geometry">
            <mxRectangle width="30" height="30" as="alternateBounds" />
          </mxGeometry>
        </mxCell>
        <mxCell id="bNYrujHuYFInBL5xQJTk-232" value="phone: string" style="shape=partialRectangle;connectable=0;fillColor=none;top=0;left=0;bottom=0;right=0;align=left;spacingLeft=6;overflow=hidden;whiteSpace=wrap;html=1;" parent="bNYrujHuYFInBL5xQJTk-230" vertex="1">
          <mxGeometry x="30" width="150" height="30" as="geometry">
            <mxRectangle width="150" height="30" as="alternateBounds" />
          </mxGeometry>
        </mxCell>
        <mxCell id="bNYrujHuYFInBL5xQJTk-233" value="" style="shape=tableRow;horizontal=0;startSize=0;swimlaneHead=0;swimlaneBody=0;fillColor=none;collapsible=0;dropTarget=0;points=[[0,0.5],[1,0.5]];portConstraint=eastwest;top=0;left=0;right=0;bottom=0;" parent="bNYrujHuYFInBL5xQJTk-208" vertex="1">
          <mxGeometry y="270" width="180" height="30" as="geometry" />
        </mxCell>
        <mxCell id="bNYrujHuYFInBL5xQJTk-234" value="" style="shape=partialRectangle;connectable=0;fillColor=none;top=0;left=0;bottom=0;right=0;editable=1;overflow=hidden;whiteSpace=wrap;html=1;" parent="bNYrujHuYFInBL5xQJTk-233" vertex="1">
          <mxGeometry width="30" height="30" as="geometry">
            <mxRectangle width="30" height="30" as="alternateBounds" />
          </mxGeometry>
        </mxCell>
        <mxCell id="bNYrujHuYFInBL5xQJTk-235" value="payment_method: string" style="shape=partialRectangle;connectable=0;fillColor=none;top=0;left=0;bottom=0;right=0;align=left;spacingLeft=6;overflow=hidden;whiteSpace=wrap;html=1;" parent="bNYrujHuYFInBL5xQJTk-233" vertex="1">
          <mxGeometry x="30" width="150" height="30" as="geometry">
            <mxRectangle width="150" height="30" as="alternateBounds" />
          </mxGeometry>
        </mxCell>
        <mxCell id="bNYrujHuYFInBL5xQJTk-236" value="" style="shape=tableRow;horizontal=0;startSize=0;swimlaneHead=0;swimlaneBody=0;fillColor=none;collapsible=0;dropTarget=0;points=[[0,0.5],[1,0.5]];portConstraint=eastwest;top=0;left=0;right=0;bottom=0;" parent="bNYrujHuYFInBL5xQJTk-208" vertex="1">
          <mxGeometry y="300" width="180" height="30" as="geometry" />
        </mxCell>
        <mxCell id="bNYrujHuYFInBL5xQJTk-237" value="" style="shape=partialRectangle;connectable=0;fillColor=none;top=0;left=0;bottom=0;right=0;editable=1;overflow=hidden;whiteSpace=wrap;html=1;" parent="bNYrujHuYFInBL5xQJTk-236" vertex="1">
          <mxGeometry width="30" height="30" as="geometry">
            <mxRectangle width="30" height="30" as="alternateBounds" />
          </mxGeometry>
        </mxCell>
        <mxCell id="bNYrujHuYFInBL5xQJTk-238" value="ten_nguoi_nhan: string" style="shape=partialRectangle;connectable=0;fillColor=none;top=0;left=0;bottom=0;right=0;align=left;spacingLeft=6;overflow=hidden;whiteSpace=wrap;html=1;" parent="bNYrujHuYFInBL5xQJTk-236" vertex="1">
          <mxGeometry x="30" width="150" height="30" as="geometry">
            <mxRectangle width="150" height="30" as="alternateBounds" />
          </mxGeometry>
        </mxCell>
        <mxCell id="bNYrujHuYFInBL5xQJTk-258" value="" style="shape=tableRow;horizontal=0;startSize=0;swimlaneHead=0;swimlaneBody=0;fillColor=none;collapsible=0;dropTarget=0;points=[[0,0.5],[1,0.5]];portConstraint=eastwest;top=0;left=0;right=0;bottom=0;" parent="bNYrujHuYFInBL5xQJTk-208" vertex="1">
          <mxGeometry y="330" width="180" height="30" as="geometry" />
        </mxCell>
        <mxCell id="bNYrujHuYFInBL5xQJTk-259" value="" style="shape=partialRectangle;connectable=0;fillColor=none;top=0;left=0;bottom=0;right=0;editable=1;overflow=hidden;whiteSpace=wrap;html=1;" parent="bNYrujHuYFInBL5xQJTk-258" vertex="1">
          <mxGeometry width="30" height="30" as="geometry">
            <mxRectangle width="30" height="30" as="alternateBounds" />
          </mxGeometry>
        </mxCell>
        <mxCell id="bNYrujHuYFInBL5xQJTk-260" value="total: number" style="shape=partialRectangle;connectable=0;fillColor=none;top=0;left=0;bottom=0;right=0;align=left;spacingLeft=6;overflow=hidden;whiteSpace=wrap;html=1;" parent="bNYrujHuYFInBL5xQJTk-258" vertex="1">
          <mxGeometry x="30" width="150" height="30" as="geometry">
            <mxRectangle width="150" height="30" as="alternateBounds" />
          </mxGeometry>
        </mxCell>
        <mxCell id="bNYrujHuYFInBL5xQJTk-239" value="Order Detail ( chi tiết đơn hàng)" style="shape=table;startSize=30;container=1;collapsible=1;childLayout=tableLayout;fixedRows=1;rowLines=0;fontStyle=1;align=center;resizeLast=1;html=1;" parent="1" vertex="1">
          <mxGeometry x="2150" y="2760" width="210.00000000000045" height="210" as="geometry" />
        </mxCell>
        <mxCell id="bNYrujHuYFInBL5xQJTk-240" value="" style="shape=tableRow;horizontal=0;startSize=0;swimlaneHead=0;swimlaneBody=0;fillColor=none;collapsible=0;dropTarget=0;points=[[0,0.5],[1,0.5]];portConstraint=eastwest;top=0;left=0;right=0;bottom=1;" parent="bNYrujHuYFInBL5xQJTk-239" vertex="1">
          <mxGeometry y="30" width="210.00000000000045" height="30" as="geometry" />
        </mxCell>
        <mxCell id="bNYrujHuYFInBL5xQJTk-241" value="PK" style="shape=partialRectangle;connectable=0;fillColor=none;top=0;left=0;bottom=0;right=0;fontStyle=1;overflow=hidden;whiteSpace=wrap;html=1;" parent="bNYrujHuYFInBL5xQJTk-240" vertex="1">
          <mxGeometry width="30" height="30" as="geometry">
            <mxRectangle width="30" height="30" as="alternateBounds" />
          </mxGeometry>
        </mxCell>
        <mxCell id="bNYrujHuYFInBL5xQJTk-242" value="_id: ObjectId" style="shape=partialRectangle;connectable=0;fillColor=none;top=0;left=0;bottom=0;right=0;align=left;spacingLeft=6;fontStyle=5;overflow=hidden;whiteSpace=wrap;html=1;" parent="bNYrujHuYFInBL5xQJTk-240" vertex="1">
          <mxGeometry x="30" width="180.00000000000045" height="30" as="geometry">
            <mxRectangle width="180.00000000000045" height="30" as="alternateBounds" />
          </mxGeometry>
        </mxCell>
        <mxCell id="bNYrujHuYFInBL5xQJTk-243" value="" style="shape=tableRow;horizontal=0;startSize=0;swimlaneHead=0;swimlaneBody=0;fillColor=none;collapsible=0;dropTarget=0;points=[[0,0.5],[1,0.5]];portConstraint=eastwest;top=0;left=0;right=0;bottom=0;" parent="bNYrujHuYFInBL5xQJTk-239" vertex="1">
          <mxGeometry y="60" width="210.00000000000045" height="30" as="geometry" />
        </mxCell>
        <mxCell id="bNYrujHuYFInBL5xQJTk-244" value="" style="shape=partialRectangle;connectable=0;fillColor=none;top=0;left=0;bottom=0;right=0;editable=1;overflow=hidden;whiteSpace=wrap;html=1;" parent="bNYrujHuYFInBL5xQJTk-243" vertex="1">
          <mxGeometry width="30" height="30" as="geometry">
            <mxRectangle width="30" height="30" as="alternateBounds" />
          </mxGeometry>
        </mxCell>
        <mxCell id="bNYrujHuYFInBL5xQJTk-245" value="size: ObjectId" style="shape=partialRectangle;connectable=0;fillColor=none;top=0;left=0;bottom=0;right=0;align=left;spacingLeft=6;overflow=hidden;whiteSpace=wrap;html=1;" parent="bNYrujHuYFInBL5xQJTk-243" vertex="1">
          <mxGeometry x="30" width="180.00000000000045" height="30" as="geometry">
            <mxRectangle width="180.00000000000045" height="30" as="alternateBounds" />
          </mxGeometry>
        </mxCell>
        <mxCell id="bNYrujHuYFInBL5xQJTk-246" value="" style="shape=tableRow;horizontal=0;startSize=0;swimlaneHead=0;swimlaneBody=0;fillColor=none;collapsible=0;dropTarget=0;points=[[0,0.5],[1,0.5]];portConstraint=eastwest;top=0;left=0;right=0;bottom=0;" parent="bNYrujHuYFInBL5xQJTk-239" vertex="1">
          <mxGeometry y="90" width="210.00000000000045" height="30" as="geometry" />
        </mxCell>
        <mxCell id="bNYrujHuYFInBL5xQJTk-247" value="" style="shape=partialRectangle;connectable=0;fillColor=none;top=0;left=0;bottom=0;right=0;editable=1;overflow=hidden;whiteSpace=wrap;html=1;" parent="bNYrujHuYFInBL5xQJTk-246" vertex="1">
          <mxGeometry width="30" height="30" as="geometry">
            <mxRectangle width="30" height="30" as="alternateBounds" />
          </mxGeometry>
        </mxCell>
        <mxCell id="bNYrujHuYFInBL5xQJTk-248" value="quantity: number" style="shape=partialRectangle;connectable=0;fillColor=none;top=0;left=0;bottom=0;right=0;align=left;spacingLeft=6;overflow=hidden;whiteSpace=wrap;html=1;" parent="bNYrujHuYFInBL5xQJTk-246" vertex="1">
          <mxGeometry x="30" width="180.00000000000045" height="30" as="geometry">
            <mxRectangle width="180.00000000000045" height="30" as="alternateBounds" />
          </mxGeometry>
        </mxCell>
        <mxCell id="bNYrujHuYFInBL5xQJTk-249" value="" style="shape=tableRow;horizontal=0;startSize=0;swimlaneHead=0;swimlaneBody=0;fillColor=none;collapsible=0;dropTarget=0;points=[[0,0.5],[1,0.5]];portConstraint=eastwest;top=0;left=0;right=0;bottom=0;" parent="bNYrujHuYFInBL5xQJTk-239" vertex="1">
          <mxGeometry y="120" width="210.00000000000045" height="30" as="geometry" />
        </mxCell>
        <mxCell id="bNYrujHuYFInBL5xQJTk-250" value="" style="shape=partialRectangle;connectable=0;fillColor=none;top=0;left=0;bottom=0;right=0;editable=1;overflow=hidden;whiteSpace=wrap;html=1;" parent="bNYrujHuYFInBL5xQJTk-249" vertex="1">
          <mxGeometry width="30" height="30" as="geometry">
            <mxRectangle width="30" height="30" as="alternateBounds" />
          </mxGeometry>
        </mxCell>
        <mxCell id="bNYrujHuYFInBL5xQJTk-251" value="price: number" style="shape=partialRectangle;connectable=0;fillColor=none;top=0;left=0;bottom=0;right=0;align=left;spacingLeft=6;overflow=hidden;whiteSpace=wrap;html=1;" parent="bNYrujHuYFInBL5xQJTk-249" vertex="1">
          <mxGeometry x="30" width="180.00000000000045" height="30" as="geometry">
            <mxRectangle width="180.00000000000045" height="30" as="alternateBounds" />
          </mxGeometry>
        </mxCell>
        <mxCell id="bNYrujHuYFInBL5xQJTk-252" value="" style="shape=tableRow;horizontal=0;startSize=0;swimlaneHead=0;swimlaneBody=0;fillColor=none;collapsible=0;dropTarget=0;points=[[0,0.5],[1,0.5]];portConstraint=eastwest;top=0;left=0;right=0;bottom=0;" parent="bNYrujHuYFInBL5xQJTk-239" vertex="1">
          <mxGeometry y="150" width="210.00000000000045" height="30" as="geometry" />
        </mxCell>
        <mxCell id="bNYrujHuYFInBL5xQJTk-253" value="" style="shape=partialRectangle;connectable=0;fillColor=none;top=0;left=0;bottom=0;right=0;editable=1;overflow=hidden;whiteSpace=wrap;html=1;" parent="bNYrujHuYFInBL5xQJTk-252" vertex="1">
          <mxGeometry width="30" height="30" as="geometry">
            <mxRectangle width="30" height="30" as="alternateBounds" />
          </mxGeometry>
        </mxCell>
        <mxCell id="bNYrujHuYFInBL5xQJTk-254" value="createdAt: Date" style="shape=partialRectangle;connectable=0;fillColor=none;top=0;left=0;bottom=0;right=0;align=left;spacingLeft=6;overflow=hidden;whiteSpace=wrap;html=1;" parent="bNYrujHuYFInBL5xQJTk-252" vertex="1">
          <mxGeometry x="30" width="180.00000000000045" height="30" as="geometry">
            <mxRectangle width="180.00000000000045" height="30" as="alternateBounds" />
          </mxGeometry>
        </mxCell>
        <mxCell id="bNYrujHuYFInBL5xQJTk-255" value="" style="shape=tableRow;horizontal=0;startSize=0;swimlaneHead=0;swimlaneBody=0;fillColor=none;collapsible=0;dropTarget=0;points=[[0,0.5],[1,0.5]];portConstraint=eastwest;top=0;left=0;right=0;bottom=0;" parent="bNYrujHuYFInBL5xQJTk-239" vertex="1">
          <mxGeometry y="180" width="210.00000000000045" height="30" as="geometry" />
        </mxCell>
        <mxCell id="bNYrujHuYFInBL5xQJTk-256" value="" style="shape=partialRectangle;connectable=0;fillColor=none;top=0;left=0;bottom=0;right=0;editable=1;overflow=hidden;whiteSpace=wrap;html=1;" parent="bNYrujHuYFInBL5xQJTk-255" vertex="1">
          <mxGeometry width="30" height="30" as="geometry">
            <mxRectangle width="30" height="30" as="alternateBounds" />
          </mxGeometry>
        </mxCell>
        <mxCell id="bNYrujHuYFInBL5xQJTk-257" value="updatedAt: Date" style="shape=partialRectangle;connectable=0;fillColor=none;top=0;left=0;bottom=0;right=0;align=left;spacingLeft=6;overflow=hidden;whiteSpace=wrap;html=1;" parent="bNYrujHuYFInBL5xQJTk-255" vertex="1">
          <mxGeometry x="30" width="180.00000000000045" height="30" as="geometry">
            <mxRectangle width="180.00000000000045" height="30" as="alternateBounds" />
          </mxGeometry>
        </mxCell>
        <mxCell id="bNYrujHuYFInBL5xQJTk-261" value="" style="edgeStyle=entityRelationEdgeStyle;fontSize=12;html=1;endArrow=ERmany;startArrow=ERmany;rounded=0;entryX=-0.03;entryY=0.381;entryDx=0;entryDy=0;exitX=0.992;exitY=0.733;exitDx=0;exitDy=0;exitPerimeter=0;entryPerimeter=0;" parent="1" edge="1">
          <mxGeometry width="100" height="100" relative="1" as="geometry">
            <mxPoint x="1239.56" y="2281.9900000000002" as="sourcePoint" />
            <mxPoint x="1295.6" y="2461.43" as="targetPoint" />
            <Array as="points">
              <mxPoint x="1151" y="2461" />
              <mxPoint x="1221" y="2401" />
              <mxPoint x="1191" y="2461" />
            </Array>
          </mxGeometry>
        </mxCell>
        <mxCell id="bNYrujHuYFInBL5xQJTk-262" value="" style="edgeStyle=entityRelationEdgeStyle;fontSize=12;html=1;endArrow=ERmany;startArrow=ERmany;rounded=0;exitX=0.25;exitY=0;exitDx=0;exitDy=0;" parent="1" edge="1">
          <mxGeometry width="100" height="100" relative="1" as="geometry">
            <mxPoint x="1480" y="2440" as="sourcePoint" />
            <mxPoint x="1370" y="2170" as="targetPoint" />
            <Array as="points">
              <mxPoint x="1515" y="2270" />
            </Array>
          </mxGeometry>
        </mxCell>
        <mxCell id="bNYrujHuYFInBL5xQJTk-263" value="" style="edgeStyle=entityRelationEdgeStyle;fontSize=12;html=1;endArrow=ERmany;startArrow=ERmany;rounded=0;entryX=-0.014;entryY=0.129;entryDx=0;entryDy=0;entryPerimeter=0;" parent="1" target="bNYrujHuYFInBL5xQJTk-69" edge="1">
          <mxGeometry width="100" height="100" relative="1" as="geometry">
            <mxPoint x="1550" y="2190" as="sourcePoint" />
            <mxPoint x="1650" y="2090" as="targetPoint" />
          </mxGeometry>
        </mxCell>
        <mxCell id="bNYrujHuYFInBL5xQJTk-264" value="" style="edgeStyle=entityRelationEdgeStyle;fontSize=12;html=1;endArrow=ERmany;startArrow=ERmany;rounded=0;exitX=1.003;exitY=0.073;exitDx=0;exitDy=0;exitPerimeter=0;entryX=-0.028;entryY=0.151;entryDx=0;entryDy=0;entryPerimeter=0;" parent="1" source="bNYrujHuYFInBL5xQJTk-106" target="bNYrujHuYFInBL5xQJTk-87" edge="1">
          <mxGeometry width="100" height="100" relative="1" as="geometry">
            <mxPoint x="2040" y="2120" as="sourcePoint" />
            <mxPoint x="2140" y="2020" as="targetPoint" />
          </mxGeometry>
        </mxCell>
        <mxCell id="bNYrujHuYFInBL5xQJTk-265" value="" style="edgeStyle=entityRelationEdgeStyle;fontSize=12;html=1;endArrow=ERmany;startArrow=ERmany;rounded=0;entryX=0;entryY=0.5;entryDx=0;entryDy=0;" parent="1" target="bNYrujHuYFInBL5xQJTk-88" edge="1">
          <mxGeometry width="100" height="100" relative="1" as="geometry">
            <mxPoint x="1840" y="2490" as="sourcePoint" />
            <mxPoint x="1940" y="2390" as="targetPoint" />
          </mxGeometry>
        </mxCell>
        <mxCell id="bNYrujHuYFInBL5xQJTk-266" value="" style="edgeStyle=entityRelationEdgeStyle;fontSize=12;html=1;endArrow=ERmany;startArrow=ERmany;rounded=0;entryX=0.006;entryY=0.113;entryDx=0;entryDy=0;entryPerimeter=0;" parent="1" target="bNYrujHuYFInBL5xQJTk-126" edge="1">
          <mxGeometry width="100" height="100" relative="1" as="geometry">
            <mxPoint x="1840" y="2630" as="sourcePoint" />
            <mxPoint x="1940" y="2530" as="targetPoint" />
          </mxGeometry>
        </mxCell>
        <mxCell id="bNYrujHuYFInBL5xQJTk-267" value="" style="edgeStyle=entityRelationEdgeStyle;fontSize=12;html=1;endArrow=ERmany;startArrow=ERmany;rounded=0;exitX=1;exitY=0.5;exitDx=0;exitDy=0;entryX=0;entryY=0.5;entryDx=0;entryDy=0;" parent="1" source="bNYrujHuYFInBL5xQJTk-135" target="bNYrujHuYFInBL5xQJTk-145" edge="1">
          <mxGeometry width="100" height="100" relative="1" as="geometry">
            <mxPoint x="2270" y="2720" as="sourcePoint" />
            <mxPoint x="2370" y="2620" as="targetPoint" />
          </mxGeometry>
        </mxCell>
        <mxCell id="bNYrujHuYFInBL5xQJTk-269" value="" style="edgeStyle=entityRelationEdgeStyle;fontSize=12;html=1;endArrow=ERmany;startArrow=ERmany;rounded=0;entryX=0;entryY=0.5;entryDx=0;entryDy=0;" parent="1" target="bNYrujHuYFInBL5xQJTk-158" edge="1">
          <mxGeometry width="100" height="100" relative="1" as="geometry">
            <mxPoint x="2550" y="2560" as="sourcePoint" />
            <mxPoint x="2650" y="2460" as="targetPoint" />
          </mxGeometry>
        </mxCell>
        <mxCell id="bNYrujHuYFInBL5xQJTk-270" value="" style="edgeStyle=entityRelationEdgeStyle;fontSize=12;html=1;endArrow=ERmany;startArrow=ERmany;rounded=0;entryX=1.002;entryY=1.002;entryDx=0;entryDy=0;entryPerimeter=0;exitX=1.026;exitY=-0.101;exitDx=0;exitDy=0;exitPerimeter=0;" parent="1" source="bNYrujHuYFInBL5xQJTk-184" target="bNYrujHuYFInBL5xQJTk-84" edge="1">
          <mxGeometry width="100" height="100" relative="1" as="geometry">
            <mxPoint x="1870" y="2870" as="sourcePoint" />
            <mxPoint x="1970" y="2770" as="targetPoint" />
          </mxGeometry>
        </mxCell>
        <mxCell id="bNYrujHuYFInBL5xQJTk-271" value="" style="edgeStyle=entityRelationEdgeStyle;fontSize=12;html=1;endArrow=ERmany;startArrow=ERmany;rounded=0;entryX=0;entryY=0.5;entryDx=0;entryDy=0;exitX=1.022;exitY=-0.186;exitDx=0;exitDy=0;exitPerimeter=0;" parent="1" source="bNYrujHuYFInBL5xQJTk-193" target="bNYrujHuYFInBL5xQJTk-209" edge="1">
          <mxGeometry width="100" height="100" relative="1" as="geometry">
            <mxPoint x="1870" y="2960" as="sourcePoint" />
            <mxPoint x="1970" y="2860" as="targetPoint" />
          </mxGeometry>
        </mxCell>
        <mxCell id="bNYrujHuYFInBL5xQJTk-272" value="" style="edgeStyle=entityRelationEdgeStyle;fontSize=12;html=1;endArrow=ERmany;startArrow=ERmany;rounded=0;entryX=0;entryY=0.5;entryDx=0;entryDy=0;exitX=1.014;exitY=-0.109;exitDx=0;exitDy=0;exitPerimeter=0;" parent="1" source="bNYrujHuYFInBL5xQJTk-224" target="bNYrujHuYFInBL5xQJTk-246" edge="1">
          <mxGeometry width="100" height="100" relative="1" as="geometry">
            <mxPoint x="2180" y="3100" as="sourcePoint" />
            <mxPoint x="2280" y="3000" as="targetPoint" />
          </mxGeometry>
        </mxCell>
        <mxCell id="cmyY2_ZFDQIt59RLekjW-38" style="edgeStyle=orthogonalEdgeStyle;rounded=0;orthogonalLoop=1;jettySize=auto;html=1;" edge="1" parent="1" source="cmyY2_ZFDQIt59RLekjW-1" target="cmyY2_ZFDQIt59RLekjW-3">
          <mxGeometry relative="1" as="geometry" />
        </mxCell>
        <mxCell id="cmyY2_ZFDQIt59RLekjW-1" value="" style="shape=umlActor;verticalLabelPosition=bottom;verticalAlign=top;html=1;outlineConnect=0;" vertex="1" parent="1">
          <mxGeometry x="1450" y="3550" width="30" height="60" as="geometry" />
        </mxCell>
        <mxCell id="cmyY2_ZFDQIt59RLekjW-2" value="Quản lý cửa hàng" style="text;html=1;align=center;verticalAlign=middle;whiteSpace=wrap;rounded=0;" vertex="1" parent="1">
          <mxGeometry x="1410" y="3640" width="125" height="30" as="geometry" />
        </mxCell>
        <mxCell id="cmyY2_ZFDQIt59RLekjW-3" value="" style="ellipse;whiteSpace=wrap;html=1;" vertex="1" parent="1">
          <mxGeometry x="1660" y="3540" width="120" height="80" as="geometry" />
        </mxCell>
        <mxCell id="cmyY2_ZFDQIt59RLekjW-4" value="Login" style="text;html=1;align=center;verticalAlign=middle;whiteSpace=wrap;rounded=0;" vertex="1" parent="1">
          <mxGeometry x="1690" y="3565" width="60" height="30" as="geometry" />
        </mxCell>
        <mxCell id="cmyY2_ZFDQIt59RLekjW-5" value="" style="ellipse;whiteSpace=wrap;html=1;" vertex="1" parent="1">
          <mxGeometry x="1970" y="3270" width="180" height="80" as="geometry" />
        </mxCell>
        <mxCell id="cmyY2_ZFDQIt59RLekjW-6" value="Quản lý nhân viên" style="text;html=1;align=center;verticalAlign=middle;whiteSpace=wrap;rounded=0;" vertex="1" parent="1">
          <mxGeometry x="2005" y="3295" width="110" height="30" as="geometry" />
        </mxCell>
        <mxCell id="cmyY2_ZFDQIt59RLekjW-9" value="" style="ellipse;whiteSpace=wrap;html=1;" vertex="1" parent="1">
          <mxGeometry x="1980" y="3370" width="180" height="80" as="geometry" />
        </mxCell>
        <mxCell id="cmyY2_ZFDQIt59RLekjW-10" value="Quản lý thống kê" style="text;html=1;align=center;verticalAlign=middle;whiteSpace=wrap;rounded=0;" vertex="1" parent="1">
          <mxGeometry x="2015" y="3395" width="110" height="30" as="geometry" />
        </mxCell>
        <mxCell id="cmyY2_ZFDQIt59RLekjW-14" value="" style="ellipse;whiteSpace=wrap;html=1;" vertex="1" parent="1">
          <mxGeometry x="1990" y="3470" width="180" height="80" as="geometry" />
        </mxCell>
        <mxCell id="cmyY2_ZFDQIt59RLekjW-15" value="Quản lý bài viết" style="text;html=1;align=center;verticalAlign=middle;whiteSpace=wrap;rounded=0;" vertex="1" parent="1">
          <mxGeometry x="2025" y="3495" width="110" height="30" as="geometry" />
        </mxCell>
        <mxCell id="cmyY2_ZFDQIt59RLekjW-16" value="" style="ellipse;whiteSpace=wrap;html=1;" vertex="1" parent="1">
          <mxGeometry x="1990" y="3565" width="180" height="80" as="geometry" />
        </mxCell>
        <mxCell id="cmyY2_ZFDQIt59RLekjW-17" value="Quản lý danh mục bài viết" style="text;html=1;align=center;verticalAlign=middle;whiteSpace=wrap;rounded=0;" vertex="1" parent="1">
          <mxGeometry x="2025" y="3590" width="110" height="30" as="geometry" />
        </mxCell>
        <mxCell id="cmyY2_ZFDQIt59RLekjW-24" value="" style="ellipse;whiteSpace=wrap;html=1;" vertex="1" parent="1">
          <mxGeometry x="1980" y="3670" width="180" height="80" as="geometry" />
        </mxCell>
        <mxCell id="cmyY2_ZFDQIt59RLekjW-25" value="Quản lý voucher" style="text;html=1;align=center;verticalAlign=middle;whiteSpace=wrap;rounded=0;" vertex="1" parent="1">
          <mxGeometry x="2015" y="3695" width="110" height="30" as="geometry" />
        </mxCell>
        <mxCell id="cmyY2_ZFDQIt59RLekjW-26" value="" style="ellipse;whiteSpace=wrap;html=1;" vertex="1" parent="1">
          <mxGeometry x="1970" y="3770" width="180" height="80" as="geometry" />
        </mxCell>
        <mxCell id="cmyY2_ZFDQIt59RLekjW-27" value="Quản lý size sản phẩm (quần áo)" style="text;html=1;align=center;verticalAlign=middle;whiteSpace=wrap;rounded=0;" vertex="1" parent="1">
          <mxGeometry x="2005" y="3795" width="110" height="30" as="geometry" />
        </mxCell>
        <mxCell id="cmyY2_ZFDQIt59RLekjW-28" value="" style="ellipse;whiteSpace=wrap;html=1;" vertex="1" parent="1">
          <mxGeometry x="1760" y="3795" width="180" height="80" as="geometry" />
        </mxCell>
        <mxCell id="cmyY2_ZFDQIt59RLekjW-29" value="Quản lý banner" style="text;html=1;align=center;verticalAlign=middle;whiteSpace=wrap;rounded=0;" vertex="1" parent="1">
          <mxGeometry x="1795" y="3820" width="110" height="30" as="geometry" />
        </mxCell>
        <mxCell id="cmyY2_ZFDQIt59RLekjW-30" value="" style="ellipse;whiteSpace=wrap;html=1;" vertex="1" parent="1">
          <mxGeometry x="1550" y="3810" width="180" height="80" as="geometry" />
        </mxCell>
        <mxCell id="cmyY2_ZFDQIt59RLekjW-31" value="Quản lý kho hàng (só lượng sản phẩm ....)" style="text;html=1;align=center;verticalAlign=middle;whiteSpace=wrap;rounded=0;" vertex="1" parent="1">
          <mxGeometry x="1585" y="3835" width="110" height="30" as="geometry" />
        </mxCell>
        <mxCell id="cmyY2_ZFDQIt59RLekjW-32" value="" style="ellipse;whiteSpace=wrap;html=1;" vertex="1" parent="1">
          <mxGeometry x="1760" y="3215" width="180" height="80" as="geometry" />
        </mxCell>
        <mxCell id="cmyY2_ZFDQIt59RLekjW-33" value="Quản lý khác hàng" style="text;html=1;align=center;verticalAlign=middle;whiteSpace=wrap;rounded=0;" vertex="1" parent="1">
          <mxGeometry x="1795" y="3240" width="110" height="30" as="geometry" />
        </mxCell>
        <mxCell id="cmyY2_ZFDQIt59RLekjW-34" value="" style="ellipse;whiteSpace=wrap;html=1;" vertex="1" parent="1">
          <mxGeometry x="1550" y="3230" width="180" height="80" as="geometry" />
        </mxCell>
        <mxCell id="cmyY2_ZFDQIt59RLekjW-35" value="Quản lý danh mục sản phẩm" style="text;html=1;align=center;verticalAlign=middle;whiteSpace=wrap;rounded=0;" vertex="1" parent="1">
          <mxGeometry x="1585" y="3255" width="110" height="30" as="geometry" />
        </mxCell>
        <mxCell id="cmyY2_ZFDQIt59RLekjW-36" value="" style="ellipse;whiteSpace=wrap;html=1;" vertex="1" parent="1">
          <mxGeometry x="1355" y="3245" width="180" height="80" as="geometry" />
        </mxCell>
        <mxCell id="cmyY2_ZFDQIt59RLekjW-37" value="Quản lý đơn hàng" style="text;html=1;align=center;verticalAlign=middle;whiteSpace=wrap;rounded=0;" vertex="1" parent="1">
          <mxGeometry x="1390" y="3270" width="110" height="30" as="geometry" />
        </mxCell>
        <mxCell id="cmyY2_ZFDQIt59RLekjW-43" value="" style="endArrow=classic;html=1;rounded=0;entryX=0.5;entryY=1;entryDx=0;entryDy=0;" edge="1" parent="1" target="cmyY2_ZFDQIt59RLekjW-36">
          <mxGeometry width="50" height="50" relative="1" as="geometry">
            <mxPoint x="1720" y="3540" as="sourcePoint" />
            <mxPoint x="1770" y="3490" as="targetPoint" />
          </mxGeometry>
        </mxCell>
        <mxCell id="cmyY2_ZFDQIt59RLekjW-44" value="" style="endArrow=classic;html=1;rounded=0;entryX=0.5;entryY=1;entryDx=0;entryDy=0;" edge="1" parent="1">
          <mxGeometry width="50" height="50" relative="1" as="geometry">
            <mxPoint x="1720" y="3540" as="sourcePoint" />
            <mxPoint x="1445" y="3325" as="targetPoint" />
          </mxGeometry>
        </mxCell>
        <mxCell id="cmyY2_ZFDQIt59RLekjW-45" value="" style="endArrow=classic;html=1;rounded=0;entryX=0.5;entryY=1;entryDx=0;entryDy=0;" edge="1" parent="1" target="cmyY2_ZFDQIt59RLekjW-34">
          <mxGeometry width="50" height="50" relative="1" as="geometry">
            <mxPoint x="1720" y="3540" as="sourcePoint" />
            <mxPoint x="1445" y="3325" as="targetPoint" />
          </mxGeometry>
        </mxCell>
        <mxCell id="cmyY2_ZFDQIt59RLekjW-46" value="" style="endArrow=classic;html=1;rounded=0;" edge="1" parent="1" target="cmyY2_ZFDQIt59RLekjW-32">
          <mxGeometry width="50" height="50" relative="1" as="geometry">
            <mxPoint x="1720" y="3540" as="sourcePoint" />
            <mxPoint x="1445" y="3325" as="targetPoint" />
          </mxGeometry>
        </mxCell>
        <mxCell id="cmyY2_ZFDQIt59RLekjW-47" value="" style="endArrow=classic;html=1;rounded=0;entryX=0;entryY=0.5;entryDx=0;entryDy=0;" edge="1" parent="1" target="cmyY2_ZFDQIt59RLekjW-5">
          <mxGeometry width="50" height="50" relative="1" as="geometry">
            <mxPoint x="1720" y="3540" as="sourcePoint" />
            <mxPoint x="1445" y="3325" as="targetPoint" />
          </mxGeometry>
        </mxCell>
        <mxCell id="cmyY2_ZFDQIt59RLekjW-48" value="" style="endArrow=classic;html=1;rounded=0;entryX=-0.018;entryY=0.629;entryDx=0;entryDy=0;entryPerimeter=0;" edge="1" parent="1" target="cmyY2_ZFDQIt59RLekjW-9">
          <mxGeometry width="50" height="50" relative="1" as="geometry">
            <mxPoint x="1720" y="3540" as="sourcePoint" />
            <mxPoint x="1445" y="3325" as="targetPoint" />
          </mxGeometry>
        </mxCell>
        <mxCell id="cmyY2_ZFDQIt59RLekjW-49" value="" style="endArrow=classic;html=1;rounded=0;" edge="1" parent="1" source="cmyY2_ZFDQIt59RLekjW-3" target="cmyY2_ZFDQIt59RLekjW-14">
          <mxGeometry width="50" height="50" relative="1" as="geometry">
            <mxPoint x="1720" y="3540" as="sourcePoint" />
            <mxPoint x="1445" y="3325" as="targetPoint" />
          </mxGeometry>
        </mxCell>
        <mxCell id="cmyY2_ZFDQIt59RLekjW-50" value="" style="endArrow=classic;html=1;rounded=0;entryX=0.036;entryY=0.221;entryDx=0;entryDy=0;entryPerimeter=0;exitX=0.99;exitY=0.379;exitDx=0;exitDy=0;exitPerimeter=0;" edge="1" parent="1" source="cmyY2_ZFDQIt59RLekjW-3" target="cmyY2_ZFDQIt59RLekjW-16">
          <mxGeometry width="50" height="50" relative="1" as="geometry">
            <mxPoint x="1720" y="3540" as="sourcePoint" />
            <mxPoint x="1445" y="3325" as="targetPoint" />
          </mxGeometry>
        </mxCell>
        <mxCell id="cmyY2_ZFDQIt59RLekjW-51" value="" style="endArrow=classic;html=1;rounded=0;" edge="1" parent="1" target="cmyY2_ZFDQIt59RLekjW-24">
          <mxGeometry width="50" height="50" relative="1" as="geometry">
            <mxPoint x="1780" y="3570" as="sourcePoint" />
            <mxPoint x="1445" y="3325" as="targetPoint" />
          </mxGeometry>
        </mxCell>
        <mxCell id="cmyY2_ZFDQIt59RLekjW-52" value="" style="endArrow=classic;html=1;rounded=0;entryX=0;entryY=0;entryDx=0;entryDy=0;" edge="1" parent="1" target="cmyY2_ZFDQIt59RLekjW-26">
          <mxGeometry width="50" height="50" relative="1" as="geometry">
            <mxPoint x="1780" y="3570" as="sourcePoint" />
            <mxPoint x="1445" y="3325" as="targetPoint" />
          </mxGeometry>
        </mxCell>
        <mxCell id="cmyY2_ZFDQIt59RLekjW-56" value="" style="endArrow=classic;html=1;rounded=0;entryX=0.5;entryY=0;entryDx=0;entryDy=0;" edge="1" parent="1" source="cmyY2_ZFDQIt59RLekjW-3" target="cmyY2_ZFDQIt59RLekjW-30">
          <mxGeometry width="50" height="50" relative="1" as="geometry">
            <mxPoint x="1660" y="3700" as="sourcePoint" />
            <mxPoint x="1710" y="3650" as="targetPoint" />
          </mxGeometry>
        </mxCell>
        <mxCell id="cmyY2_ZFDQIt59RLekjW-57" value="" style="endArrow=classic;html=1;rounded=0;entryX=0.362;entryY=0.04;entryDx=0;entryDy=0;entryPerimeter=0;" edge="1" parent="1" source="cmyY2_ZFDQIt59RLekjW-3" target="cmyY2_ZFDQIt59RLekjW-28">
          <mxGeometry width="50" height="50" relative="1" as="geometry">
            <mxPoint x="1660" y="3700" as="sourcePoint" />
            <mxPoint x="1710" y="3650" as="targetPoint" />
          </mxGeometry>
        </mxCell>
        <mxCell id="cmyY2_ZFDQIt59RLekjW-59" style="edgeStyle=orthogonalEdgeStyle;rounded=0;orthogonalLoop=1;jettySize=auto;html=1;" edge="1" source="cmyY2_ZFDQIt59RLekjW-60" target="cmyY2_ZFDQIt59RLekjW-62" parent="1">
          <mxGeometry relative="1" as="geometry" />
        </mxCell>
        <mxCell id="cmyY2_ZFDQIt59RLekjW-60" value="" style="shape=umlActor;verticalLabelPosition=bottom;verticalAlign=top;html=1;outlineConnect=0;" vertex="1" parent="1">
          <mxGeometry x="2465" y="3550" width="30" height="60" as="geometry" />
        </mxCell>
        <mxCell id="cmyY2_ZFDQIt59RLekjW-61" value="Nhân Viên cửa hàng" style="text;html=1;align=center;verticalAlign=middle;whiteSpace=wrap;rounded=0;" vertex="1" parent="1">
          <mxGeometry x="2425" y="3640" width="125" height="30" as="geometry" />
        </mxCell>
        <mxCell id="cmyY2_ZFDQIt59RLekjW-62" value="" style="ellipse;whiteSpace=wrap;html=1;" vertex="1" parent="1">
          <mxGeometry x="2675" y="3540" width="120" height="80" as="geometry" />
        </mxCell>
        <mxCell id="cmyY2_ZFDQIt59RLekjW-63" value="Login" style="text;html=1;align=center;verticalAlign=middle;whiteSpace=wrap;rounded=0;" vertex="1" parent="1">
          <mxGeometry x="2705" y="3565" width="60" height="30" as="geometry" />
        </mxCell>
        <mxCell id="cmyY2_ZFDQIt59RLekjW-64" value="" style="ellipse;whiteSpace=wrap;html=1;" vertex="1" parent="1">
          <mxGeometry x="2985" y="3270" width="180" height="80" as="geometry" />
        </mxCell>
        <mxCell id="cmyY2_ZFDQIt59RLekjW-65" value="Quản lý đơn hàng" style="text;html=1;align=center;verticalAlign=middle;whiteSpace=wrap;rounded=0;" vertex="1" parent="1">
          <mxGeometry x="3020" y="3295" width="110" height="30" as="geometry" />
        </mxCell>
        <mxCell id="cmyY2_ZFDQIt59RLekjW-66" value="" style="ellipse;whiteSpace=wrap;html=1;" vertex="1" parent="1">
          <mxGeometry x="2995" y="3370" width="180" height="80" as="geometry" />
        </mxCell>
        <mxCell id="cmyY2_ZFDQIt59RLekjW-67" value="Theo dõi sản phẩm" style="text;html=1;align=center;verticalAlign=middle;whiteSpace=wrap;rounded=0;" vertex="1" parent="1">
          <mxGeometry x="3030" y="3395" width="110" height="30" as="geometry" />
        </mxCell>
        <mxCell id="cmyY2_ZFDQIt59RLekjW-68" value="" style="ellipse;whiteSpace=wrap;html=1;" vertex="1" parent="1">
          <mxGeometry x="3005" y="3470" width="180" height="80" as="geometry" />
        </mxCell>
        <mxCell id="cmyY2_ZFDQIt59RLekjW-69" value="Theo dõi bài viết" style="text;html=1;align=center;verticalAlign=middle;whiteSpace=wrap;rounded=0;" vertex="1" parent="1">
          <mxGeometry x="3040" y="3495" width="110" height="30" as="geometry" />
        </mxCell>
        <mxCell id="cmyY2_ZFDQIt59RLekjW-70" value="" style="ellipse;whiteSpace=wrap;html=1;" vertex="1" parent="1">
          <mxGeometry x="3005" y="3565" width="180" height="80" as="geometry" />
        </mxCell>
        <mxCell id="cmyY2_ZFDQIt59RLekjW-71" value="Theo dõi danh mục sản phẩm" style="text;html=1;align=center;verticalAlign=middle;whiteSpace=wrap;rounded=0;" vertex="1" parent="1">
          <mxGeometry x="3040" y="3590" width="110" height="30" as="geometry" />
        </mxCell>
        <mxCell id="cmyY2_ZFDQIt59RLekjW-72" value="" style="ellipse;whiteSpace=wrap;html=1;" vertex="1" parent="1">
          <mxGeometry x="2995" y="3670" width="180" height="80" as="geometry" />
        </mxCell>
        <mxCell id="cmyY2_ZFDQIt59RLekjW-73" value="Theo dõi số lượng sản phẩm" style="text;html=1;align=center;verticalAlign=middle;whiteSpace=wrap;rounded=0;" vertex="1" parent="1">
          <mxGeometry x="3030" y="3695" width="110" height="30" as="geometry" />
        </mxCell>
        <mxCell id="cmyY2_ZFDQIt59RLekjW-74" value="" style="ellipse;whiteSpace=wrap;html=1;" vertex="1" parent="1">
          <mxGeometry x="2985" y="3770" width="180" height="80" as="geometry" />
        </mxCell>
        <mxCell id="cmyY2_ZFDQIt59RLekjW-75" value="Theo dõi banner/ slider" style="text;html=1;align=center;verticalAlign=middle;whiteSpace=wrap;rounded=0;" vertex="1" parent="1">
          <mxGeometry x="3020" y="3795" width="110" height="30" as="geometry" />
        </mxCell>
        <mxCell id="cmyY2_ZFDQIt59RLekjW-86" value="" style="endArrow=classic;html=1;rounded=0;entryX=0;entryY=0.5;entryDx=0;entryDy=0;" edge="1" target="cmyY2_ZFDQIt59RLekjW-64" parent="1">
          <mxGeometry width="50" height="50" relative="1" as="geometry">
            <mxPoint x="2735" y="3540" as="sourcePoint" />
            <mxPoint x="2460" y="3325" as="targetPoint" />
          </mxGeometry>
        </mxCell>
        <mxCell id="cmyY2_ZFDQIt59RLekjW-87" value="" style="endArrow=classic;html=1;rounded=0;entryX=-0.018;entryY=0.629;entryDx=0;entryDy=0;entryPerimeter=0;" edge="1" target="cmyY2_ZFDQIt59RLekjW-66" parent="1">
          <mxGeometry width="50" height="50" relative="1" as="geometry">
            <mxPoint x="2735" y="3540" as="sourcePoint" />
            <mxPoint x="2460" y="3325" as="targetPoint" />
          </mxGeometry>
        </mxCell>
        <mxCell id="cmyY2_ZFDQIt59RLekjW-88" value="" style="endArrow=classic;html=1;rounded=0;" edge="1" source="cmyY2_ZFDQIt59RLekjW-62" target="cmyY2_ZFDQIt59RLekjW-68" parent="1">
          <mxGeometry width="50" height="50" relative="1" as="geometry">
            <mxPoint x="2735" y="3540" as="sourcePoint" />
            <mxPoint x="2460" y="3325" as="targetPoint" />
          </mxGeometry>
        </mxCell>
        <mxCell id="cmyY2_ZFDQIt59RLekjW-89" value="" style="endArrow=classic;html=1;rounded=0;entryX=0.036;entryY=0.221;entryDx=0;entryDy=0;entryPerimeter=0;exitX=0.99;exitY=0.379;exitDx=0;exitDy=0;exitPerimeter=0;" edge="1" source="cmyY2_ZFDQIt59RLekjW-62" target="cmyY2_ZFDQIt59RLekjW-70" parent="1">
          <mxGeometry width="50" height="50" relative="1" as="geometry">
            <mxPoint x="2735" y="3540" as="sourcePoint" />
            <mxPoint x="2460" y="3325" as="targetPoint" />
          </mxGeometry>
        </mxCell>
        <mxCell id="cmyY2_ZFDQIt59RLekjW-90" value="" style="endArrow=classic;html=1;rounded=0;" edge="1" target="cmyY2_ZFDQIt59RLekjW-72" parent="1">
          <mxGeometry width="50" height="50" relative="1" as="geometry">
            <mxPoint x="2795" y="3570" as="sourcePoint" />
            <mxPoint x="2460" y="3325" as="targetPoint" />
          </mxGeometry>
        </mxCell>
        <mxCell id="cmyY2_ZFDQIt59RLekjW-91" value="" style="endArrow=classic;html=1;rounded=0;entryX=0;entryY=0;entryDx=0;entryDy=0;" edge="1" target="cmyY2_ZFDQIt59RLekjW-74" parent="1">
          <mxGeometry width="50" height="50" relative="1" as="geometry">
            <mxPoint x="2795" y="3570" as="sourcePoint" />
            <mxPoint x="2460" y="3325" as="targetPoint" />
          </mxGeometry>
        </mxCell>
        <mxCell id="cmyY2_ZFDQIt59RLekjW-101" value="Actor" style="shape=umlActor;verticalLabelPosition=bottom;verticalAlign=top;html=1;outlineConnect=0;" vertex="1" parent="1">
          <mxGeometry x="1900" y="4260" width="40" height="80" as="geometry" />
        </mxCell>
        <mxCell id="cmyY2_ZFDQIt59RLekjW-102" value="" style="ellipse;whiteSpace=wrap;html=1;" vertex="1" parent="1">
          <mxGeometry x="2230" y="3960" width="180" height="80" as="geometry" />
        </mxCell>
        <mxCell id="cmyY2_ZFDQIt59RLekjW-103" value="Đăng nhập" style="text;html=1;align=center;verticalAlign=middle;whiteSpace=wrap;rounded=0;" vertex="1" parent="1">
          <mxGeometry x="2270" y="3985" width="100" height="30" as="geometry" />
        </mxCell>
        <mxCell id="cmyY2_ZFDQIt59RLekjW-106" value="" style="ellipse;whiteSpace=wrap;html=1;" vertex="1" parent="1">
          <mxGeometry x="2240" y="4060" width="180" height="80" as="geometry" />
        </mxCell>
        <mxCell id="cmyY2_ZFDQIt59RLekjW-107" value="Đổi mật khẩu" style="text;html=1;align=center;verticalAlign=middle;whiteSpace=wrap;rounded=0;" vertex="1" parent="1">
          <mxGeometry x="2280" y="4085" width="100" height="30" as="geometry" />
        </mxCell>
        <mxCell id="cmyY2_ZFDQIt59RLekjW-110" value="" style="ellipse;whiteSpace=wrap;html=1;" vertex="1" parent="1">
          <mxGeometry x="2240" y="4160" width="180" height="80" as="geometry" />
        </mxCell>
        <mxCell id="cmyY2_ZFDQIt59RLekjW-111" value="Quên mật khẩu" style="text;html=1;align=center;verticalAlign=middle;whiteSpace=wrap;rounded=0;" vertex="1" parent="1">
          <mxGeometry x="2280" y="4185" width="100" height="30" as="geometry" />
        </mxCell>
        <mxCell id="cmyY2_ZFDQIt59RLekjW-112" value="" style="ellipse;whiteSpace=wrap;html=1;" vertex="1" parent="1">
          <mxGeometry x="2250" y="4260" width="180" height="80" as="geometry" />
        </mxCell>
        <mxCell id="cmyY2_ZFDQIt59RLekjW-113" value="cập nhật thông tin cá nhân" style="text;html=1;align=center;verticalAlign=middle;whiteSpace=wrap;rounded=0;" vertex="1" parent="1">
          <mxGeometry x="2290" y="4285" width="100" height="30" as="geometry" />
        </mxCell>
        <mxCell id="cmyY2_ZFDQIt59RLekjW-114" value="" style="ellipse;whiteSpace=wrap;html=1;" vertex="1" parent="1">
          <mxGeometry x="2250" y="4360" width="180" height="80" as="geometry" />
        </mxCell>
        <mxCell id="cmyY2_ZFDQIt59RLekjW-115" value="Quản lý đơn hàng" style="text;html=1;align=center;verticalAlign=middle;whiteSpace=wrap;rounded=0;" vertex="1" parent="1">
          <mxGeometry x="2290" y="4385" width="100" height="30" as="geometry" />
        </mxCell>
        <mxCell id="cmyY2_ZFDQIt59RLekjW-116" value="" style="ellipse;whiteSpace=wrap;html=1;" vertex="1" parent="1">
          <mxGeometry x="2260" y="4460" width="180" height="80" as="geometry" />
        </mxCell>
        <mxCell id="cmyY2_ZFDQIt59RLekjW-117" value="Mua hàng" style="text;html=1;align=center;verticalAlign=middle;whiteSpace=wrap;rounded=0;" vertex="1" parent="1">
          <mxGeometry x="2300" y="4485" width="100" height="30" as="geometry" />
        </mxCell>
        <mxCell id="cmyY2_ZFDQIt59RLekjW-118" value="" style="ellipse;whiteSpace=wrap;html=1;" vertex="1" parent="1">
          <mxGeometry x="2270" y="4570" width="180" height="80" as="geometry" />
        </mxCell>
        <mxCell id="cmyY2_ZFDQIt59RLekjW-119" value="Lọc sản phẩm" style="text;html=1;align=center;verticalAlign=middle;whiteSpace=wrap;rounded=0;" vertex="1" parent="1">
          <mxGeometry x="2310" y="4595" width="100" height="30" as="geometry" />
        </mxCell>
        <mxCell id="cmyY2_ZFDQIt59RLekjW-120" value="" style="ellipse;whiteSpace=wrap;html=1;" vertex="1" parent="1">
          <mxGeometry x="2220" y="3850" width="180" height="80" as="geometry" />
        </mxCell>
        <mxCell id="cmyY2_ZFDQIt59RLekjW-121" value="Xem tin tức" style="text;html=1;align=center;verticalAlign=middle;whiteSpace=wrap;rounded=0;" vertex="1" parent="1">
          <mxGeometry x="2260" y="3875" width="100" height="30" as="geometry" />
        </mxCell>
        <mxCell id="cmyY2_ZFDQIt59RLekjW-122" value="" style="ellipse;whiteSpace=wrap;html=1;" vertex="1" parent="1">
          <mxGeometry x="2210" y="3760" width="180" height="80" as="geometry" />
        </mxCell>
        <mxCell id="cmyY2_ZFDQIt59RLekjW-123" value="Đăng ký" style="text;html=1;align=center;verticalAlign=middle;whiteSpace=wrap;rounded=0;" vertex="1" parent="1">
          <mxGeometry x="2250" y="3785" width="100" height="30" as="geometry" />
        </mxCell>
        <mxCell id="cmyY2_ZFDQIt59RLekjW-125" value="" style="endArrow=classic;html=1;rounded=0;" edge="1" parent="1">
          <mxGeometry width="50" height="50" relative="1" as="geometry">
            <mxPoint x="1950" y="4300" as="sourcePoint" />
            <mxPoint x="2000" y="4250" as="targetPoint" />
          </mxGeometry>
        </mxCell>
        <mxCell id="cmyY2_ZFDQIt59RLekjW-126" value="" style="endArrow=classic;html=1;rounded=0;entryX=0;entryY=0.5;entryDx=0;entryDy=0;" edge="1" parent="1" target="cmyY2_ZFDQIt59RLekjW-122">
          <mxGeometry width="50" height="50" relative="1" as="geometry">
            <mxPoint x="1950" y="4300" as="sourcePoint" />
            <mxPoint x="2000" y="4250" as="targetPoint" />
          </mxGeometry>
        </mxCell>
        <mxCell id="cmyY2_ZFDQIt59RLekjW-127" value="" style="endArrow=classic;html=1;rounded=0;entryX=0;entryY=0.5;entryDx=0;entryDy=0;" edge="1" parent="1" target="cmyY2_ZFDQIt59RLekjW-120">
          <mxGeometry width="50" height="50" relative="1" as="geometry">
            <mxPoint x="1950" y="4300" as="sourcePoint" />
            <mxPoint x="2000" y="4250" as="targetPoint" />
          </mxGeometry>
        </mxCell>
        <mxCell id="cmyY2_ZFDQIt59RLekjW-128" value="" style="endArrow=classic;html=1;rounded=0;entryX=0;entryY=0.5;entryDx=0;entryDy=0;" edge="1" parent="1" target="cmyY2_ZFDQIt59RLekjW-102">
          <mxGeometry width="50" height="50" relative="1" as="geometry">
            <mxPoint x="1950" y="4300" as="sourcePoint" />
            <mxPoint x="2000" y="4250" as="targetPoint" />
          </mxGeometry>
        </mxCell>
        <mxCell id="cmyY2_ZFDQIt59RLekjW-129" value="" style="endArrow=classic;html=1;rounded=0;entryX=0;entryY=0.5;entryDx=0;entryDy=0;" edge="1" parent="1" target="cmyY2_ZFDQIt59RLekjW-106">
          <mxGeometry width="50" height="50" relative="1" as="geometry">
            <mxPoint x="1950" y="4300" as="sourcePoint" />
            <mxPoint x="2000" y="4250" as="targetPoint" />
          </mxGeometry>
        </mxCell>
        <mxCell id="cmyY2_ZFDQIt59RLekjW-130" value="" style="endArrow=classic;html=1;rounded=0;entryX=0;entryY=0.5;entryDx=0;entryDy=0;" edge="1" parent="1" target="cmyY2_ZFDQIt59RLekjW-110">
          <mxGeometry width="50" height="50" relative="1" as="geometry">
            <mxPoint x="1950" y="4300" as="sourcePoint" />
            <mxPoint x="2000" y="4250" as="targetPoint" />
          </mxGeometry>
        </mxCell>
        <mxCell id="cmyY2_ZFDQIt59RLekjW-132" value="" style="endArrow=classic;html=1;rounded=0;entryX=0;entryY=0.5;entryDx=0;entryDy=0;" edge="1" parent="1" target="cmyY2_ZFDQIt59RLekjW-112">
          <mxGeometry width="50" height="50" relative="1" as="geometry">
            <mxPoint x="1950" y="4300" as="sourcePoint" />
            <mxPoint x="2000" y="4250" as="targetPoint" />
          </mxGeometry>
        </mxCell>
        <mxCell id="cmyY2_ZFDQIt59RLekjW-133" value="" style="endArrow=classic;html=1;rounded=0;" edge="1" parent="1" target="cmyY2_ZFDQIt59RLekjW-114">
          <mxGeometry width="50" height="50" relative="1" as="geometry">
            <mxPoint x="1950" y="4300" as="sourcePoint" />
            <mxPoint x="2000" y="4250" as="targetPoint" />
          </mxGeometry>
        </mxCell>
        <mxCell id="cmyY2_ZFDQIt59RLekjW-134" value="" style="endArrow=classic;html=1;rounded=0;entryX=0;entryY=0.5;entryDx=0;entryDy=0;" edge="1" parent="1" target="cmyY2_ZFDQIt59RLekjW-116">
          <mxGeometry width="50" height="50" relative="1" as="geometry">
            <mxPoint x="1950" y="4300" as="sourcePoint" />
            <mxPoint x="2000" y="4250" as="targetPoint" />
          </mxGeometry>
        </mxCell>
        <mxCell id="cmyY2_ZFDQIt59RLekjW-135" value="" style="endArrow=classic;html=1;rounded=0;entryX=0.036;entryY=0.263;entryDx=0;entryDy=0;entryPerimeter=0;" edge="1" parent="1" target="cmyY2_ZFDQIt59RLekjW-118">
          <mxGeometry width="50" height="50" relative="1" as="geometry">
            <mxPoint x="1950" y="4300" as="sourcePoint" />
            <mxPoint x="2000" y="4250" as="targetPoint" />
          </mxGeometry>
        </mxCell>
        <mxCell id="cmyY2_ZFDQIt59RLekjW-136" value="Actor" style="shape=umlActor;verticalLabelPosition=bottom;verticalAlign=top;html=1;outlineConnect=0;" vertex="1" parent="1">
          <mxGeometry x="2771" y="4140" width="30" height="60" as="geometry" />
        </mxCell>
        <mxCell id="cmyY2_ZFDQIt59RLekjW-137" value="Khách vãng lai" style="text;html=1;align=center;verticalAlign=middle;whiteSpace=wrap;rounded=0;" vertex="1" parent="1">
          <mxGeometry x="2728.5" y="4215" width="115" height="30" as="geometry" />
        </mxCell>
        <mxCell id="cmyY2_ZFDQIt59RLekjW-140" value="" style="endArrow=classic;html=1;rounded=0;entryX=0.973;entryY=0.687;entryDx=0;entryDy=0;entryPerimeter=0;" edge="1" parent="1" target="cmyY2_ZFDQIt59RLekjW-122">
          <mxGeometry width="50" height="50" relative="1" as="geometry">
            <mxPoint x="2760" y="4170" as="sourcePoint" />
            <mxPoint x="2810" y="4120" as="targetPoint" />
          </mxGeometry>
        </mxCell>
        <mxCell id="cmyY2_ZFDQIt59RLekjW-141" value="" style="endArrow=classic;html=1;rounded=0;" edge="1" parent="1" target="cmyY2_ZFDQIt59RLekjW-120">
          <mxGeometry width="50" height="50" relative="1" as="geometry">
            <mxPoint x="2760" y="4170" as="sourcePoint" />
            <mxPoint x="2810" y="4120" as="targetPoint" />
          </mxGeometry>
        </mxCell>
        <mxCell id="cmyY2_ZFDQIt59RLekjW-142" value="" style="endArrow=classic;html=1;rounded=0;entryX=0.973;entryY=0.23;entryDx=0;entryDy=0;entryPerimeter=0;" edge="1" parent="1" target="cmyY2_ZFDQIt59RLekjW-116">
          <mxGeometry width="50" height="50" relative="1" as="geometry">
            <mxPoint x="2760" y="4170" as="sourcePoint" />
            <mxPoint x="2810" y="4120" as="targetPoint" />
          </mxGeometry>
        </mxCell>
        <mxCell id="cmyY2_ZFDQIt59RLekjW-143" value="" style="endArrow=classic;html=1;rounded=0;entryX=1.001;entryY=0.302;entryDx=0;entryDy=0;entryPerimeter=0;" edge="1" parent="1" target="cmyY2_ZFDQIt59RLekjW-118">
          <mxGeometry width="50" height="50" relative="1" as="geometry">
            <mxPoint x="2760" y="4170" as="sourcePoint" />
            <mxPoint x="2810" y="4120" as="targetPoint" />
          </mxGeometry>
        </mxCell>
      </root>
    </mxGraphModel>
  </diagram>
</mxfile>
